<?xml version="1.0" encoding="UTF-8" standalone="no"?>
<!DOCTYPE svg PUBLIC "-//W3C//DTD SVG 1.1//EN"
 "http://www.w3.org/Graphics/SVG/1.1/DTD/svg11.dtd">
<!-- Generated by graphviz version 2.40.1 (20161225.0304)
 -->
<!-- Title: dependencies Pages: 1 -->
<svg width="504pt" height="349pt"
 viewBox="0.00 0.00 504.00 349.00" xmlns="http://www.w3.org/2000/svg" xmlns:xlink="http://www.w3.org/1999/xlink">
<g id="graph0" class="graph" transform="scale(1 1) rotate(0) translate(4 345)">
<title>dependencies</title>
<polygon fill="#ffffff" stroke="transparent" points="-4,4 -4,-345 500,-345 500,4 -4,4"/>
<text text-anchor="start" x="227.0091" y="-42.4" font-family="sans-serif" font-weight="bold" font-size="14.00" fill="#000000">Legend</text>
<polygon fill="#ffffb3" stroke="transparent" points="14,-10 14,-30 34,-30 34,-10 14,-10"/>
<text text-anchor="start" x="37.629" y="-15.4" font-family="sans-serif" font-size="14.00" fill="#000000"> &#160;Declarations</text>
<polygon fill="#8dd3c7" stroke="transparent" points="127,-10 127,-30 147,-30 147,-10 127,-10"/>
<text text-anchor="start" x="150.7251" y="-15.4" font-family="sans-serif" font-size="14.00" fill="#000000"> &#160;Module</text>
<polygon fill="#80b1d3" stroke="transparent" points="213,-10 213,-30 233,-30 233,-10 213,-10"/>
<text text-anchor="start" x="236.7812" y="-15.4" font-family="sans-serif" font-size="14.00" fill="#000000"> &#160;Bootstrap</text>
<polygon fill="#fdb462" stroke="transparent" points="310,-10 310,-30 330,-30 330,-10 310,-10"/>
<text text-anchor="start" x="333.6732" y="-15.4" font-family="sans-serif" font-size="14.00" fill="#000000"> &#160;Providers</text>
<polygon fill="#fb8072" stroke="transparent" points="406,-10 406,-30 426,-30 426,-10 406,-10"/>
<text text-anchor="start" x="429.7258" y="-15.4" font-family="sans-serif" font-size="14.00" fill="#000000"> &#160;Exports</text>
<g id="clust1" class="cluster">
<title>cluster_DeviceManagerModule</title>
<polygon fill="none" stroke="#000000" stroke-dasharray="1,5" points="18,-70 18,-333 478,-333 478,-70 18,-70"/>
</g>
<g id="clust2" class="cluster">
<title>cluster_DeviceManagerModule_declarations</title>
<polygon fill="none" stroke="#000000" points="296,-143 296,-195 470,-195 470,-143 296,-143"/>
</g>
<g id="clust3" class="cluster">
<title>cluster_DeviceManagerModule_DeviceManagerDirective_providers</title>
<polygon fill="none" stroke="#000000" points="348,-78 348,-130 418,-130 418,-78 348,-78"/>
</g>
<g id="clust4" class="cluster">
<title>cluster_DeviceManagerModule_imports</title>
<polygon fill="none" stroke="#000000" points="26,-143 26,-195 288,-195 288,-143 26,-143"/>
</g>
<g id="clust5" class="cluster">
<title>cluster_DeviceManagerModule_exports</title>
<polygon fill="none" stroke="#000000" points="130,-273 130,-325 306,-325 306,-273 130,-273"/>
</g>
<!-- DeviceManagerDirective -->
<g id="node1" class="node">
<title>DeviceManagerDirective</title>
<polygon fill="#ffffb3" stroke="#000000" points="461.9735,-187 304.0265,-187 304.0265,-151 461.9735,-151 461.9735,-187"/>
<text text-anchor="middle" x="383" y="-164.8" font-family="Times,serif" font-size="14.00" fill="#000000">DeviceManagerDirective</text>
</g>
<!-- DeviceManagerModule -->
<g id="node2" class="node">
<title>DeviceManagerModule</title>
<polygon fill="#8dd3c7" stroke="#000000" points="292.4398,-252 289.4398,-256 268.4398,-256 265.4398,-252 143.5602,-252 143.5602,-216 292.4398,-216 292.4398,-252"/>
<text text-anchor="middle" x="218" y="-229.8" font-family="Times,serif" font-size="14.00" fill="#000000">DeviceManagerModule</text>
</g>
<!-- DeviceManagerDirective&#45;&gt;DeviceManagerModule -->
<g id="edge1" class="edge">
<title>DeviceManagerDirective&#45;&gt;DeviceManagerModule</title>
<path fill="none" stroke="#000000" d="M304.0055,-169C293.4952,-169 286.2623,-169 286.2623,-169 286.2623,-169 286.2623,-205.8939 286.2623,-205.8939"/>
<polygon fill="#000000" stroke="#000000" points="282.7624,-205.8938 286.2623,-215.8939 289.7624,-205.8939 282.7624,-205.8938"/>
</g>
<!-- DeviceManagerDirective  -->
<g id="node6" class="node">
<title>DeviceManagerDirective </title>
<polygon fill="#fb8072" stroke="#000000" points="298.4728,-317 137.5272,-317 137.5272,-281 298.4728,-281 298.4728,-317"/>
<text text-anchor="middle" x="218" y="-294.8" font-family="Times,serif" font-size="14.00" fill="#000000">DeviceManagerDirective </text>
</g>
<!-- DeviceManagerModule&#45;&gt;DeviceManagerDirective  -->
<g id="edge5" class="edge">
<title>DeviceManagerModule&#45;&gt;DeviceManagerDirective </title>
<path fill="none" stroke="#000000" stroke-dasharray="5,2" d="M218,-252.1061C218,-252.1061 218,-270.991 218,-270.991"/>
<polygon fill="#000000" stroke="#000000" points="214.5001,-270.9909 218,-280.991 221.5001,-270.991 214.5001,-270.9909"/>
</g>
<!-- () -->
<g id="node3" class="node">
<title>()</title>
<ellipse fill="#fdb462" stroke="#000000" cx="383" cy="-104" rx="27" ry="18"/>
<text text-anchor="middle" x="383" y="-99.8" font-family="Times,serif" font-size="14.00" fill="#000000">()</text>
</g>
<!-- ()&#45;&gt;DeviceManagerDirective -->
<g id="edge2" class="edge">
<title>()&#45;&gt;DeviceManagerDirective</title>
<path fill="none" stroke="#000000" d="M383,-122.1061C383,-122.1061 383,-140.991 383,-140.991"/>
<polygon fill="#000000" stroke="#000000" points="379.5001,-140.9909 383,-150.991 386.5001,-140.991 379.5001,-140.9909"/>
</g>
<!-- RestPythonModule -->
<g id="node4" class="node">
<title>RestPythonModule</title>
<polygon fill="#8dd3c7" stroke="#000000" points="280.1094,-187 277.1094,-191 256.1094,-191 253.1094,-187 155.8906,-187 155.8906,-151 280.1094,-151 280.1094,-187"/>
<text text-anchor="middle" x="218" y="-164.8" font-family="Times,serif" font-size="14.00" fill="#000000">RestPythonModule</text>
</g>
<!-- RestPythonModule&#45;&gt;DeviceManagerModule -->
<g id="edge3" class="edge">
<title>RestPythonModule&#45;&gt;DeviceManagerModule</title>
<path fill="none" stroke="#000000" d="M218,-187.1061C218,-187.1061 218,-205.991 218,-205.991"/>
<polygon fill="#000000" stroke="#000000" points="214.5001,-205.9909 218,-215.991 221.5001,-205.991 214.5001,-205.9909"/>
</g>
<!-- DomainModule -->
<g id="node5" class="node">
<title>DomainModule</title>
<polygon fill="#8dd3c7" stroke="#000000" points="138.1528,-187 135.1528,-191 114.1528,-191 111.1528,-187 33.8472,-187 33.8472,-151 138.1528,-151 138.1528,-187"/>
<text text-anchor="middle" x="86" y="-164.8" font-family="Times,serif" font-size="14.00" fill="#000000">DomainModule</text>
</g>
<!-- DomainModule&#45;&gt;DeviceManagerModule -->
<g id="edge4" class="edge">
<title>DomainModule&#45;&gt;DeviceManagerModule</title>
<path fill="none" stroke="#000000" d="M138.3427,-169C145.1073,-169 149.7377,-169 149.7377,-169 149.7377,-169 149.7377,-205.8939 149.7377,-205.8939"/>
<polygon fill="#000000" stroke="#000000" points="146.2378,-205.8938 149.7377,-215.8939 153.2378,-205.8939 146.2378,-205.8938"/>
</g>
</g>
</svg>
