<?xml version="1.0" encoding="UTF-8" standalone="no"?>
<!DOCTYPE svg PUBLIC "-//W3C//DTD SVG 1.1//EN"
 "http://www.w3.org/Graphics/SVG/1.1/DTD/svg11.dtd">
<!-- Generated by graphviz version 2.40.1 (20161225.0304)
 -->
<!-- Title: dependencies Pages: 1 -->
<svg width="504pt" height="211pt"
 viewBox="0.00 0.00 504.00 211.00" xmlns="http://www.w3.org/2000/svg" xmlns:xlink="http://www.w3.org/1999/xlink">
<g id="graph0" class="graph" transform="scale(1 1) rotate(0) translate(4 207)">
<title>dependencies</title>
<polygon fill="#ffffff" stroke="transparent" points="-4,4 -4,-207 500,-207 500,4 -4,4"/>
<text text-anchor="start" x="227.0091" y="-42.4" font-family="sans-serif" font-weight="bold" font-size="14.00" fill="#000000">Legend</text>
<polygon fill="#ffffb3" stroke="transparent" points="14,-10 14,-30 34,-30 34,-10 14,-10"/>
<text text-anchor="start" x="37.629" y="-15.4" font-family="sans-serif" font-size="14.00" fill="#000000"> &#160;Declarations</text>
<polygon fill="#8dd3c7" stroke="transparent" points="127,-10 127,-30 147,-30 147,-10 127,-10"/>
<text text-anchor="start" x="150.7251" y="-15.4" font-family="sans-serif" font-size="14.00" fill="#000000"> &#160;Module</text>
<polygon fill="#80b1d3" stroke="transparent" points="213,-10 213,-30 233,-30 233,-10 213,-10"/>
<text text-anchor="start" x="236.7812" y="-15.4" font-family="sans-serif" font-size="14.00" fill="#000000"> &#160;Bootstrap</text>
<polygon fill="#fdb462" stroke="transparent" points="310,-10 310,-30 330,-30 330,-10 310,-10"/>
<text text-anchor="start" x="333.6732" y="-15.4" font-family="sans-serif" font-size="14.00" fill="#000000"> &#160;Providers</text>
<polygon fill="#fb8072" stroke="transparent" points="406,-10 406,-30 426,-30 426,-10 406,-10"/>
<text text-anchor="start" x="429.7258" y="-15.4" font-family="sans-serif" font-size="14.00" fill="#000000"> &#160;Exports</text>
<g id="clust1" class="cluster">
<title>cluster_FileSystemModule</title>
<polygon fill="none" stroke="#000000" stroke-dasharray="1,5" points="109,-70 109,-195 387,-195 387,-70 109,-70"/>
</g>
<g id="clust3" class="cluster">
<title>cluster_FileSystemModule_imports</title>
<polygon fill="none" stroke="#000000" points="117,-78 117,-130 379,-130 379,-78 117,-78"/>
</g>
<!-- RestPythonModule -->
<g id="node1" class="node">
<title>RestPythonModule</title>
<polygon fill="#8dd3c7" stroke="#000000" points="371.1094,-122 368.1094,-126 347.1094,-126 344.1094,-122 246.8906,-122 246.8906,-86 371.1094,-86 371.1094,-122"/>
<text text-anchor="middle" x="309" y="-99.8" font-family="Times,serif" font-size="14.00" fill="#000000">RestPythonModule</text>
</g>
<!-- FileSystemModule -->
<g id="node3" class="node">
<title>FileSystemModule</title>
<polygon fill="#8dd3c7" stroke="#000000" points="304.052,-187 301.052,-191 280.052,-191 277.052,-187 181.948,-187 181.948,-151 304.052,-151 304.052,-187"/>
<text text-anchor="middle" x="243" y="-164.8" font-family="Times,serif" font-size="14.00" fill="#000000">FileSystemModule</text>
</g>
<!-- RestPythonModule&#45;&gt;FileSystemModule -->
<g id="edge1" class="edge">
<title>RestPythonModule&#45;&gt;FileSystemModule</title>
<path fill="none" stroke="#000000" d="M275.6105,-122.1061C275.6105,-122.1061 275.6105,-140.991 275.6105,-140.991"/>
<polygon fill="#000000" stroke="#000000" points="272.1105,-140.9909 275.6105,-150.991 279.1105,-140.991 272.1105,-140.9909"/>
</g>
<!-- DomainModule -->
<g id="node2" class="node">
<title>DomainModule</title>
<polygon fill="#8dd3c7" stroke="#000000" points="229.1528,-122 226.1528,-126 205.1528,-126 202.1528,-122 124.8472,-122 124.8472,-86 229.1528,-86 229.1528,-122"/>
<text text-anchor="middle" x="177" y="-99.8" font-family="Times,serif" font-size="14.00" fill="#000000">DomainModule</text>
</g>
<!-- DomainModule&#45;&gt;FileSystemModule -->
<g id="edge2" class="edge">
<title>DomainModule&#45;&gt;FileSystemModule</title>
<path fill="none" stroke="#000000" d="M205.5253,-122.1061C205.5253,-122.1061 205.5253,-140.991 205.5253,-140.991"/>
<polygon fill="#000000" stroke="#000000" points="202.0253,-140.9909 205.5253,-150.991 209.0253,-140.991 202.0253,-140.9909"/>
</g>
</g>
</svg>
