<?xml version="1.0" encoding="UTF-8" standalone="no"?>
<!DOCTYPE svg PUBLIC "-//W3C//DTD SVG 1.1//EN"
 "http://www.w3.org/Graphics/SVG/1.1/DTD/svg11.dtd">
<!-- Generated by graphviz version 2.40.1 (20161225.0304)
 -->
<!-- Title: dependencies Pages: 1 -->
<svg width="504pt" height="349pt"
 viewBox="0.00 0.00 504.00 349.00" xmlns="http://www.w3.org/2000/svg" xmlns:xlink="http://www.w3.org/1999/xlink">
<g id="graph0" class="graph" transform="scale(1 1) rotate(0) translate(4 345)">
<title>dependencies</title>
<polygon fill="#ffffff" stroke="transparent" points="-4,4 -4,-345 500,-345 500,4 -4,4"/>
<text text-anchor="start" x="227.0091" y="-42.4" font-family="sans-serif" font-weight="bold" font-size="14.00" fill="#000000">Legend</text>
<polygon fill="#ffffb3" stroke="transparent" points="14,-10 14,-30 34,-30 34,-10 14,-10"/>
<text text-anchor="start" x="37.629" y="-15.4" font-family="sans-serif" font-size="14.00" fill="#000000"> &#160;Declarations</text>
<polygon fill="#8dd3c7" stroke="transparent" points="127,-10 127,-30 147,-30 147,-10 127,-10"/>
<text text-anchor="start" x="150.7251" y="-15.4" font-family="sans-serif" font-size="14.00" fill="#000000"> &#160;Module</text>
<polygon fill="#80b1d3" stroke="transparent" points="213,-10 213,-30 233,-30 233,-10 213,-10"/>
<text text-anchor="start" x="236.7812" y="-15.4" font-family="sans-serif" font-size="14.00" fill="#000000"> &#160;Bootstrap</text>
<polygon fill="#fdb462" stroke="transparent" points="310,-10 310,-30 330,-30 330,-10 310,-10"/>
<text text-anchor="start" x="333.6732" y="-15.4" font-family="sans-serif" font-size="14.00" fill="#000000"> &#160;Providers</text>
<polygon fill="#fb8072" stroke="transparent" points="406,-10 406,-30 426,-30 426,-10 406,-10"/>
<text text-anchor="start" x="429.7258" y="-15.4" font-family="sans-serif" font-size="14.00" fill="#000000"> &#160;Exports</text>
<g id="clust1" class="cluster">
<title>cluster_RedhawkModule</title>
<polygon fill="none" stroke="#000000" stroke-dasharray="1,5" points="37,-70 37,-333 459,-333 459,-70 37,-70"/>
</g>
<g id="clust2" class="cluster">
<title>cluster_RedhawkModule_declarations</title>
<polygon fill="none" stroke="#000000" points="315,-143 315,-195 451,-195 451,-143 315,-143"/>
</g>
<g id="clust3" class="cluster">
<title>cluster_RedhawkModule_RedhawkDirective_providers</title>
<polygon fill="none" stroke="#000000" points="205,-78 205,-130 451,-130 451,-78 205,-78"/>
</g>
<g id="clust4" class="cluster">
<title>cluster_RedhawkModule_imports</title>
<polygon fill="none" stroke="#000000" points="45,-143 45,-195 307,-195 307,-143 45,-143"/>
</g>
<g id="clust5" class="cluster">
<title>cluster_RedhawkModule_exports</title>
<polygon fill="none" stroke="#000000" points="167,-273 167,-325 307,-325 307,-273 167,-273"/>
</g>
<!-- RedhawkDirective -->
<g id="node1" class="node">
<title>RedhawkDirective</title>
<polygon fill="#ffffb3" stroke="#000000" points="443.4552,-187 322.5448,-187 322.5448,-151 443.4552,-151 443.4552,-187"/>
<text text-anchor="middle" x="383" y="-164.8" font-family="Times,serif" font-size="14.00" fill="#000000">RedhawkDirective</text>
</g>
<!-- RedhawkModule -->
<g id="node2" class="node">
<title>RedhawkModule</title>
<polygon fill="#8dd3c7" stroke="#000000" points="293.423,-252 290.423,-256 269.423,-256 266.423,-252 180.577,-252 180.577,-216 293.423,-216 293.423,-252"/>
<text text-anchor="middle" x="237" y="-229.8" font-family="Times,serif" font-size="14.00" fill="#000000">RedhawkModule</text>
</g>
<!-- RedhawkDirective&#45;&gt;RedhawkModule -->
<g id="edge1" class="edge">
<title>RedhawkDirective&#45;&gt;RedhawkModule</title>
<path fill="none" stroke="#000000" d="M383,-187.1061C383,-206.3391 383,-234 383,-234 383,-234 303.4474,-234 303.4474,-234"/>
<polygon fill="#000000" stroke="#000000" points="303.4474,-230.5001 293.4474,-234 303.4474,-237.5001 303.4474,-230.5001"/>
</g>
<!-- RedhawkDirective  -->
<g id="node6" class="node">
<title>RedhawkDirective </title>
<polygon fill="#fb8072" stroke="#000000" points="299.456,-317 174.544,-317 174.544,-281 299.456,-281 299.456,-317"/>
<text text-anchor="middle" x="237" y="-294.8" font-family="Times,serif" font-size="14.00" fill="#000000">RedhawkDirective </text>
</g>
<!-- RedhawkModule&#45;&gt;RedhawkDirective  -->
<g id="edge5" class="edge">
<title>RedhawkModule&#45;&gt;RedhawkDirective </title>
<path fill="none" stroke="#000000" stroke-dasharray="5,2" d="M237,-252.1061C237,-252.1061 237,-270.991 237,-270.991"/>
<polygon fill="#000000" stroke="#000000" points="233.5001,-270.9909 237,-280.991 240.5001,-270.991 233.5001,-270.9909"/>
</g>
<!-- redhawkServiceProvider.() -->
<g id="node3" class="node">
<title>redhawkServiceProvider.()</title>
<ellipse fill="#fdb462" stroke="#000000" cx="328" cy="-104" rx="115.1691" ry="18"/>
<text text-anchor="middle" x="328" y="-99.8" font-family="Times,serif" font-size="14.00" fill="#000000">redhawkServiceProvider.()</text>
</g>
<!-- redhawkServiceProvider.()&#45;&gt;RedhawkDirective -->
<g id="edge2" class="edge">
<title>redhawkServiceProvider.()&#45;&gt;RedhawkDirective</title>
<path fill="none" stroke="#000000" d="M382.9284,-120.0674C382.9284,-120.0674 382.9284,-140.8237 382.9284,-140.8237"/>
<polygon fill="#000000" stroke="#000000" points="379.4285,-140.8236 382.9284,-150.8237 386.4285,-140.8237 379.4285,-140.8236"/>
</g>
<!-- RestPythonModule -->
<g id="node4" class="node">
<title>RestPythonModule</title>
<polygon fill="#8dd3c7" stroke="#000000" points="299.1094,-187 296.1094,-191 275.1094,-191 272.1094,-187 174.8906,-187 174.8906,-151 299.1094,-151 299.1094,-187"/>
<text text-anchor="middle" x="237" y="-164.8" font-family="Times,serif" font-size="14.00" fill="#000000">RestPythonModule</text>
</g>
<!-- RestPythonModule&#45;&gt;RedhawkModule -->
<g id="edge3" class="edge">
<title>RestPythonModule&#45;&gt;RedhawkModule</title>
<path fill="none" stroke="#000000" d="M237,-187.1061C237,-187.1061 237,-205.991 237,-205.991"/>
<polygon fill="#000000" stroke="#000000" points="233.5001,-205.9909 237,-215.991 240.5001,-205.991 233.5001,-205.9909"/>
</g>
<!-- SocketsModule -->
<g id="node5" class="node">
<title>SocketsModule</title>
<polygon fill="#8dd3c7" stroke="#000000" points="156.5968,-187 153.5968,-191 132.5968,-191 129.5968,-187 53.4032,-187 53.4032,-151 156.5968,-151 156.5968,-187"/>
<text text-anchor="middle" x="105" y="-164.8" font-family="Times,serif" font-size="14.00" fill="#000000">SocketsModule</text>
</g>
<!-- SocketsModule&#45;&gt;RedhawkModule -->
<g id="edge4" class="edge">
<title>SocketsModule&#45;&gt;RedhawkModule</title>
<path fill="none" stroke="#000000" d="M105,-187.1061C105,-206.3391 105,-234 105,-234 105,-234 170.6372,-234 170.6372,-234"/>
<polygon fill="#000000" stroke="#000000" points="170.6373,-237.5001 180.6372,-234 170.6372,-230.5001 170.6373,-237.5001"/>
</g>
</g>
</svg>
