<?xml version="1.0" encoding="UTF-8" standalone="no"?>
<!DOCTYPE svg PUBLIC "-//W3C//DTD SVG 1.1//EN"
 "http://www.w3.org/Graphics/SVG/1.1/DTD/svg11.dtd">
<!-- Generated by graphviz version 2.40.1 (20161225.0304)
 -->
<!-- Title: dependencies Pages: 1 -->
<svg width="504pt" height="284pt"
 viewBox="0.00 0.00 504.00 284.00" xmlns="http://www.w3.org/2000/svg" xmlns:xlink="http://www.w3.org/1999/xlink">
<g id="graph0" class="graph" transform="scale(1 1) rotate(0) translate(4 280)">
<title>dependencies</title>
<polygon fill="#ffffff" stroke="transparent" points="-4,4 -4,-280 500,-280 500,4 -4,4"/>
<text text-anchor="start" x="227.0091" y="-42.4" font-family="sans-serif" font-weight="bold" font-size="14.00" fill="#000000">Legend</text>
<polygon fill="#ffffb3" stroke="transparent" points="14,-10 14,-30 34,-30 34,-10 14,-10"/>
<text text-anchor="start" x="37.629" y="-15.4" font-family="sans-serif" font-size="14.00" fill="#000000"> &#160;Declarations</text>
<polygon fill="#8dd3c7" stroke="transparent" points="127,-10 127,-30 147,-30 147,-10 127,-10"/>
<text text-anchor="start" x="150.7251" y="-15.4" font-family="sans-serif" font-size="14.00" fill="#000000"> &#160;Module</text>
<polygon fill="#80b1d3" stroke="transparent" points="213,-10 213,-30 233,-30 233,-10 213,-10"/>
<text text-anchor="start" x="236.7812" y="-15.4" font-family="sans-serif" font-size="14.00" fill="#000000"> &#160;Bootstrap</text>
<polygon fill="#fdb462" stroke="transparent" points="310,-10 310,-30 330,-30 330,-10 310,-10"/>
<text text-anchor="start" x="333.6732" y="-15.4" font-family="sans-serif" font-size="14.00" fill="#000000"> &#160;Providers</text>
<polygon fill="#fb8072" stroke="transparent" points="406,-10 406,-30 426,-30 426,-10 406,-10"/>
<text text-anchor="start" x="429.7258" y="-15.4" font-family="sans-serif" font-size="14.00" fill="#000000"> &#160;Exports</text>
<g id="clust1" class="cluster">
<title>cluster_EventChannelModule</title>
<polygon fill="none" stroke="#000000" stroke-dasharray="1,5" points="35,-70 35,-268 461,-268 461,-70 35,-70"/>
</g>
<g id="clust3" class="cluster">
<title>cluster_EventChannelModule_imports</title>
<polygon fill="none" stroke="#000000" points="43,-78 43,-130 453,-130 453,-78 43,-78"/>
</g>
<g id="clust4" class="cluster">
<title>cluster_EventChannelModule_exports</title>
<polygon fill="none" stroke="#000000" points="110,-208 110,-260 386,-260 386,-208 110,-208"/>
</g>
<!-- RestPythonModule -->
<g id="node1" class="node">
<title>RestPythonModule</title>
<polygon fill="#8dd3c7" stroke="#000000" points="445.1094,-122 442.1094,-126 421.1094,-126 418.1094,-122 320.8906,-122 320.8906,-86 445.1094,-86 445.1094,-122"/>
<text text-anchor="middle" x="383" y="-99.8" font-family="Times,serif" font-size="14.00" fill="#000000">RestPythonModule</text>
</g>
<!-- EventChannelModule -->
<g id="node4" class="node">
<title>EventChannelModule</title>
<polygon fill="#8dd3c7" stroke="#000000" points="315.3641,-187 312.3641,-191 291.3641,-191 288.3641,-187 176.6359,-187 176.6359,-151 315.3641,-151 315.3641,-187"/>
<text text-anchor="middle" x="246" y="-164.8" font-family="Times,serif" font-size="14.00" fill="#000000">EventChannelModule</text>
</g>
<!-- RestPythonModule&#45;&gt;EventChannelModule -->
<g id="edge1" class="edge">
<title>RestPythonModule&#45;&gt;EventChannelModule</title>
<path fill="none" stroke="#000000" d="M320.9048,-104C314.0053,-104 309.4057,-104 309.4057,-104 309.4057,-104 309.4057,-140.8939 309.4057,-140.8939"/>
<polygon fill="#000000" stroke="#000000" points="305.9058,-140.8938 309.4057,-150.8939 312.9058,-140.8939 305.9058,-140.8938"/>
</g>
<!-- IdmEventModule -->
<g id="node2" class="node">
<title>IdmEventModule</title>
<polygon fill="#8dd3c7" stroke="#000000" points="303.2591,-122 300.2591,-126 279.2591,-126 276.2591,-122 188.7409,-122 188.7409,-86 303.2591,-86 303.2591,-122"/>
<text text-anchor="middle" x="246" y="-99.8" font-family="Times,serif" font-size="14.00" fill="#000000">IdmEventModule</text>
</g>
<!-- IdmEventModule&#45;&gt;EventChannelModule -->
<g id="edge2" class="edge">
<title>IdmEventModule&#45;&gt;EventChannelModule</title>
<path fill="none" stroke="#000000" d="M246,-122.1061C246,-122.1061 246,-140.991 246,-140.991"/>
<polygon fill="#000000" stroke="#000000" points="242.5001,-140.9909 246,-150.991 249.5001,-140.991 242.5001,-140.9909"/>
</g>
<!-- OdmEventModule -->
<g id="node3" class="node">
<title>OdmEventModule</title>
<polygon fill="#8dd3c7" stroke="#000000" points="171.205,-122 168.205,-126 147.205,-126 144.205,-122 50.795,-122 50.795,-86 171.205,-86 171.205,-122"/>
<text text-anchor="middle" x="111" y="-99.8" font-family="Times,serif" font-size="14.00" fill="#000000">OdmEventModule</text>
</g>
<!-- OdmEventModule&#45;&gt;EventChannelModule -->
<g id="edge3" class="edge">
<title>OdmEventModule&#45;&gt;EventChannelModule</title>
<path fill="none" stroke="#000000" d="M171.4077,-104C178.1197,-104 182.5943,-104 182.5943,-104 182.5943,-104 182.5943,-140.8939 182.5943,-140.8939"/>
<polygon fill="#000000" stroke="#000000" points="179.0944,-140.8938 182.5943,-150.8939 186.0944,-140.8939 179.0944,-140.8938"/>
</g>
<!-- IdmEventModule  -->
<g id="node5" class="node">
<title>IdmEventModule </title>
<polygon fill="#fb8072" stroke="#000000" points="378.2591,-252 259.7409,-252 259.7409,-216 378.2591,-216 378.2591,-252"/>
<text text-anchor="middle" x="319" y="-229.8" font-family="Times,serif" font-size="14.00" fill="#000000">IdmEventModule </text>
</g>
<!-- EventChannelModule&#45;&gt;IdmEventModule  -->
<g id="edge4" class="edge">
<title>EventChannelModule&#45;&gt;IdmEventModule </title>
<path fill="none" stroke="#000000" stroke-dasharray="5,2" d="M287.6513,-187.1061C287.6513,-187.1061 287.6513,-205.991 287.6513,-205.991"/>
<polygon fill="#000000" stroke="#000000" points="284.1514,-205.9909 287.6513,-215.991 291.1514,-205.991 284.1514,-205.9909"/>
</g>
<!-- OdmEventModule  -->
<g id="node6" class="node">
<title>OdmEventModule </title>
<polygon fill="#fb8072" stroke="#000000" points="241.7052,-252 118.2948,-252 118.2948,-216 241.7052,-216 241.7052,-252"/>
<text text-anchor="middle" x="180" y="-229.8" font-family="Times,serif" font-size="14.00" fill="#000000">OdmEventModule </text>
</g>
<!-- EventChannelModule&#45;&gt;OdmEventModule  -->
<g id="edge5" class="edge">
<title>EventChannelModule&#45;&gt;OdmEventModule </title>
<path fill="none" stroke="#000000" stroke-dasharray="5,2" d="M209.2102,-187.1061C209.2102,-187.1061 209.2102,-205.991 209.2102,-205.991"/>
<polygon fill="#000000" stroke="#000000" points="205.7103,-205.9909 209.2102,-215.991 212.7103,-205.991 205.7103,-205.9909"/>
</g>
</g>
</svg>
