<?xml version="1.0" encoding="UTF-8" standalone="no"?>
<!DOCTYPE svg PUBLIC "-//W3C//DTD SVG 1.1//EN"
 "http://www.w3.org/Graphics/SVG/1.1/DTD/svg11.dtd">
<!-- Generated by graphviz version 2.40.1 (20161225.0304)
 -->
<!-- Title: dependencies Pages: 1 -->
<svg width="1038pt" height="284pt"
 viewBox="0.00 0.00 1038.00 284.00" xmlns="http://www.w3.org/2000/svg" xmlns:xlink="http://www.w3.org/1999/xlink">
<g id="graph0" class="graph" transform="scale(1 1) rotate(0) translate(4 280)">
<title>dependencies</title>
<polygon fill="#ffffff" stroke="transparent" points="-4,4 -4,-280 1034,-280 1034,4 -4,4"/>
<text text-anchor="start" x="494.0091" y="-42.4" font-family="sans-serif" font-weight="bold" font-size="14.00" fill="#000000">Legend</text>
<polygon fill="#ffffb3" stroke="transparent" points="281,-10 281,-30 301,-30 301,-10 281,-10"/>
<text text-anchor="start" x="304.629" y="-15.4" font-family="sans-serif" font-size="14.00" fill="#000000"> &#160;Declarations</text>
<polygon fill="#8dd3c7" stroke="transparent" points="394,-10 394,-30 414,-30 414,-10 394,-10"/>
<text text-anchor="start" x="417.7251" y="-15.4" font-family="sans-serif" font-size="14.00" fill="#000000"> &#160;Module</text>
<polygon fill="#80b1d3" stroke="transparent" points="480,-10 480,-30 500,-30 500,-10 480,-10"/>
<text text-anchor="start" x="503.7812" y="-15.4" font-family="sans-serif" font-size="14.00" fill="#000000"> &#160;Bootstrap</text>
<polygon fill="#fdb462" stroke="transparent" points="577,-10 577,-30 597,-30 597,-10 577,-10"/>
<text text-anchor="start" x="600.6732" y="-15.4" font-family="sans-serif" font-size="14.00" fill="#000000"> &#160;Providers</text>
<polygon fill="#fb8072" stroke="transparent" points="673,-10 673,-30 693,-30 693,-10 673,-10"/>
<text text-anchor="start" x="696.7258" y="-15.4" font-family="sans-serif" font-size="14.00" fill="#000000"> &#160;Exports</text>
<g id="clust1" class="cluster">
<title>cluster_SystemBuilderModule</title>
<polygon fill="none" stroke="#000000" stroke-dasharray="1,5" points="8,-70 8,-268 1022,-268 1022,-70 8,-70"/>
</g>
<g id="clust2" class="cluster">
<title>cluster_SystemBuilderModule_declarations</title>
<polygon fill="none" stroke="#000000" points="841,-78 841,-130 1009,-130 1009,-78 841,-78"/>
</g>
<g id="clust4" class="cluster">
<title>cluster_SystemBuilderModule_imports</title>
<polygon fill="none" stroke="#000000" points="27,-78 27,-130 833,-130 833,-78 27,-78"/>
</g>
<g id="clust5" class="cluster">
<title>cluster_SystemBuilderModule_exports</title>
<polygon fill="none" stroke="#000000" points="16,-208 16,-260 1014,-260 1014,-208 16,-208"/>
</g>
<!-- SystemBuilderDirective -->
<g id="node1" class="node">
<title>SystemBuilderDirective</title>
<polygon fill="#ffffb3" stroke="#000000" points="1000.7991,-122 849.2009,-122 849.2009,-86 1000.7991,-86 1000.7991,-122"/>
<text text-anchor="middle" x="925" y="-99.8" font-family="Times,serif" font-size="14.00" fill="#000000">SystemBuilderDirective</text>
</g>
<!-- SystemBuilderModule -->
<g id="node2" class="node">
<title>SystemBuilderModule</title>
<polygon fill="#8dd3c7" stroke="#000000" points="582.266,-187 579.266,-191 558.266,-191 555.266,-187 439.734,-187 439.734,-151 582.266,-151 582.266,-187"/>
<text text-anchor="middle" x="511" y="-164.8" font-family="Times,serif" font-size="14.00" fill="#000000">SystemBuilderModule</text>
</g>
<!-- SystemBuilderDirective&#45;&gt;SystemBuilderModule -->
<g id="edge1" class="edge">
<title>SystemBuilderDirective&#45;&gt;SystemBuilderModule</title>
<path fill="none" stroke="#000000" d="M950.9665,-122.2222C950.9665,-140.8285 950.9665,-167 950.9665,-167 950.9665,-167 592.6674,-167 592.6674,-167"/>
<polygon fill="#000000" stroke="#000000" points="592.6674,-163.5001 582.6674,-167 592.6674,-170.5001 592.6674,-163.5001"/>
</g>
<!-- SystemBuilderDirective  -->
<g id="node9" class="node">
<title>SystemBuilderDirective </title>
<polygon fill="#fb8072" stroke="#000000" points="1006.2989,-252 851.7011,-252 851.7011,-216 1006.2989,-216 1006.2989,-252"/>
<text text-anchor="middle" x="929" y="-229.8" font-family="Times,serif" font-size="14.00" fill="#000000">SystemBuilderDirective </text>
</g>
<!-- SystemBuilderModule&#45;&gt;SystemBuilderDirective  -->
<g id="edge8" class="edge">
<title>SystemBuilderModule&#45;&gt;SystemBuilderDirective </title>
<path fill="none" stroke="#000000" stroke-dasharray="5,2" d="M582.584,-172C695.2556,-172 901.2835,-172 901.2835,-172 901.2835,-172 901.2835,-205.7333 901.2835,-205.7333"/>
<polygon fill="#000000" stroke="#000000" points="897.7836,-205.7333 901.2835,-215.7333 904.7836,-205.7333 897.7836,-205.7333"/>
</g>
<!-- DomainModule  -->
<g id="node10" class="node">
<title>DomainModule </title>
<polygon fill="#fb8072" stroke="#000000" points="834.1523,-252 725.8477,-252 725.8477,-216 834.1523,-216 834.1523,-252"/>
<text text-anchor="middle" x="780" y="-229.8" font-family="Times,serif" font-size="14.00" fill="#000000">DomainModule </text>
</g>
<!-- SystemBuilderModule&#45;&gt;DomainModule  -->
<g id="edge9" class="edge">
<title>SystemBuilderModule&#45;&gt;DomainModule </title>
<path fill="none" stroke="#000000" stroke-dasharray="5,2" d="M582.4158,-177C655.6971,-177 759.058,-177 759.058,-177 759.058,-177 759.058,-205.9648 759.058,-205.9648"/>
<polygon fill="#000000" stroke="#000000" points="755.5581,-205.9648 759.058,-215.9648 762.5581,-205.9649 755.5581,-205.9648"/>
</g>
<!-- DeviceModule  -->
<g id="node11" class="node">
<title>DeviceModule </title>
<polygon fill="#fb8072" stroke="#000000" points="708.1913,-252 605.8087,-252 605.8087,-216 708.1913,-216 708.1913,-252"/>
<text text-anchor="middle" x="657" y="-229.8" font-family="Times,serif" font-size="14.00" fill="#000000">DeviceModule </text>
</g>
<!-- SystemBuilderModule&#45;&gt;DeviceModule  -->
<g id="edge10" class="edge">
<title>SystemBuilderModule&#45;&gt;DeviceModule </title>
<path fill="none" stroke="#000000" stroke-dasharray="5,2" d="M582.2781,-182C611.2202,-182 637.9682,-182 637.9682,-182 637.9682,-182 637.9682,-205.8129 637.9682,-205.8129"/>
<polygon fill="#000000" stroke="#000000" points="634.4683,-205.8129 637.9682,-215.8129 641.4683,-205.813 634.4683,-205.8129"/>
</g>
<!-- DeviceManagerModule  -->
<g id="node12" class="node">
<title>DeviceManagerModule </title>
<polygon fill="#fb8072" stroke="#000000" points="587.4404,-252 434.5596,-252 434.5596,-216 587.4404,-216 587.4404,-252"/>
<text text-anchor="middle" x="511" y="-229.8" font-family="Times,serif" font-size="14.00" fill="#000000">DeviceManagerModule </text>
</g>
<!-- SystemBuilderModule&#45;&gt;DeviceManagerModule  -->
<g id="edge11" class="edge">
<title>SystemBuilderModule&#45;&gt;DeviceManagerModule </title>
<path fill="none" stroke="#000000" stroke-dasharray="5,2" d="M511,-187.1061C511,-187.1061 511,-205.991 511,-205.991"/>
<polygon fill="#000000" stroke="#000000" points="507.5001,-205.9909 511,-215.991 514.5001,-205.991 507.5001,-205.9909"/>
</g>
<!-- WaveformModule  -->
<g id="node13" class="node">
<title>WaveformModule </title>
<polygon fill="#fb8072" stroke="#000000" points="416.4054,-252 293.5946,-252 293.5946,-216 416.4054,-216 416.4054,-252"/>
<text text-anchor="middle" x="355" y="-229.8" font-family="Times,serif" font-size="14.00" fill="#000000">WaveformModule </text>
</g>
<!-- SystemBuilderModule&#45;&gt;WaveformModule  -->
<g id="edge12" class="edge">
<title>SystemBuilderModule&#45;&gt;WaveformModule </title>
<path fill="none" stroke="#000000" stroke-dasharray="5,2" d="M439.2804,-182C391.8448,-182 338.3491,-182 338.3491,-182 338.3491,-182 338.3491,-205.8129 338.3491,-205.8129"/>
<polygon fill="#000000" stroke="#000000" points="334.8492,-205.8129 338.3491,-215.8129 341.8492,-205.813 334.8492,-205.8129"/>
</g>
<!-- RestPythonModule  -->
<g id="node14" class="node">
<title>RestPythonModule </title>
<polygon fill="#fb8072" stroke="#000000" points="275.61,-252 148.39,-252 148.39,-216 275.61,-216 275.61,-252"/>
<text text-anchor="middle" x="212" y="-229.8" font-family="Times,serif" font-size="14.00" fill="#000000">RestPythonModule </text>
</g>
<!-- SystemBuilderModule&#45;&gt;RestPythonModule  -->
<g id="edge13" class="edge">
<title>SystemBuilderModule&#45;&gt;RestPythonModule </title>
<path fill="none" stroke="#000000" stroke-dasharray="5,2" d="M439.6499,-177C346.8784,-177 196.5651,-177 196.5651,-177 196.5651,-177 196.5651,-205.9648 196.5651,-205.9648"/>
<polygon fill="#000000" stroke="#000000" points="193.0652,-205.9648 196.5651,-215.9648 200.0652,-205.9649 193.0652,-205.9648"/>
</g>
<!-- SocketsModule  -->
<g id="node15" class="node">
<title>SocketsModule </title>
<polygon fill="#fb8072" stroke="#000000" points="130.0976,-252 23.9024,-252 23.9024,-216 130.0976,-216 130.0976,-252"/>
<text text-anchor="middle" x="77" y="-229.8" font-family="Times,serif" font-size="14.00" fill="#000000">SocketsModule </text>
</g>
<!-- SystemBuilderModule&#45;&gt;SocketsModule  -->
<g id="edge14" class="edge">
<title>SystemBuilderModule&#45;&gt;SocketsModule </title>
<path fill="none" stroke="#000000" stroke-dasharray="5,2" d="M439.3415,-172C317.4648,-172 82.875,-172 82.875,-172 82.875,-172 82.875,-205.7333 82.875,-205.7333"/>
<polygon fill="#000000" stroke="#000000" points="79.3751,-205.7333 82.875,-215.7333 86.3751,-205.7333 79.3751,-205.7333"/>
</g>
<!-- DomainModule -->
<g id="node3" class="node">
<title>DomainModule</title>
<polygon fill="#8dd3c7" stroke="#000000" points="825.1528,-122 822.1528,-126 801.1528,-126 798.1528,-122 720.8472,-122 720.8472,-86 825.1528,-86 825.1528,-122"/>
<text text-anchor="middle" x="773" y="-99.8" font-family="Times,serif" font-size="14.00" fill="#000000">DomainModule</text>
</g>
<!-- DomainModule&#45;&gt;SystemBuilderModule -->
<g id="edge2" class="edge">
<title>DomainModule&#45;&gt;SystemBuilderModule</title>
<path fill="none" stroke="#000000" d="M792.192,-122.0336C792.192,-139.0597 792.192,-162 792.192,-162 792.192,-162 592.3201,-162 592.3201,-162"/>
<polygon fill="#000000" stroke="#000000" points="592.3202,-158.5001 582.3201,-162 592.3201,-165.5001 592.3202,-158.5001"/>
</g>
<!-- DeviceModule -->
<g id="node4" class="node">
<title>DeviceModule</title>
<polygon fill="#8dd3c7" stroke="#000000" points="702.691,-122 699.691,-126 678.691,-126 675.691,-122 603.309,-122 603.309,-86 702.691,-86 702.691,-122"/>
<text text-anchor="middle" x="653" y="-99.8" font-family="Times,serif" font-size="14.00" fill="#000000">DeviceModule</text>
</g>
<!-- DeviceModule&#45;&gt;SystemBuilderModule -->
<g id="edge3" class="edge">
<title>DeviceModule&#45;&gt;SystemBuilderModule</title>
<path fill="none" stroke="#000000" d="M670.2818,-122.2396C670.2818,-137.5706 670.2818,-157 670.2818,-157 670.2818,-157 592.7196,-157 592.7196,-157"/>
<polygon fill="#000000" stroke="#000000" points="592.7196,-153.5001 582.7196,-157 592.7195,-160.5001 592.7196,-153.5001"/>
</g>
<!-- DeviceManagerModule -->
<g id="node5" class="node">
<title>DeviceManagerModule</title>
<polygon fill="#8dd3c7" stroke="#000000" points="585.4398,-122 582.4398,-126 561.4398,-126 558.4398,-122 436.5602,-122 436.5602,-86 585.4398,-86 585.4398,-122"/>
<text text-anchor="middle" x="511" y="-99.8" font-family="Times,serif" font-size="14.00" fill="#000000">DeviceManagerModule</text>
</g>
<!-- DeviceManagerModule&#45;&gt;SystemBuilderModule -->
<g id="edge4" class="edge">
<title>DeviceManagerModule&#45;&gt;SystemBuilderModule</title>
<path fill="none" stroke="#000000" d="M511,-122.1061C511,-122.1061 511,-140.991 511,-140.991"/>
<polygon fill="#000000" stroke="#000000" points="507.5001,-140.9909 511,-150.991 514.5001,-140.991 507.5001,-140.9909"/>
</g>
<!-- WaveformModule -->
<g id="node6" class="node">
<title>WaveformModule</title>
<polygon fill="#8dd3c7" stroke="#000000" points="418.9061,-122 415.9061,-126 394.9061,-126 391.9061,-122 299.0939,-122 299.0939,-86 418.9061,-86 418.9061,-122"/>
<text text-anchor="middle" x="359" y="-99.8" font-family="Times,serif" font-size="14.00" fill="#000000">WaveformModule</text>
</g>
<!-- WaveformModule&#45;&gt;SystemBuilderModule -->
<g id="edge5" class="edge">
<title>WaveformModule&#45;&gt;SystemBuilderModule</title>
<path fill="none" stroke="#000000" d="M377.4009,-122.2396C377.4009,-137.5706 377.4009,-157 377.4009,-157 377.4009,-157 429.507,-157 429.507,-157"/>
<polygon fill="#000000" stroke="#000000" points="429.5071,-160.5001 439.507,-157 429.507,-153.5001 429.5071,-160.5001"/>
</g>
<!-- RestPythonModule -->
<g id="node7" class="node">
<title>RestPythonModule</title>
<polygon fill="#8dd3c7" stroke="#000000" points="281.1094,-122 278.1094,-126 257.1094,-126 254.1094,-122 156.8906,-122 156.8906,-86 281.1094,-86 281.1094,-122"/>
<text text-anchor="middle" x="219" y="-99.8" font-family="Times,serif" font-size="14.00" fill="#000000">RestPythonModule</text>
</g>
<!-- RestPythonModule&#45;&gt;SystemBuilderModule -->
<g id="edge6" class="edge">
<title>RestPythonModule&#45;&gt;SystemBuilderModule</title>
<path fill="none" stroke="#000000" d="M236.1849,-122.0336C236.1849,-139.0597 236.1849,-162 236.1849,-162 236.1849,-162 429.513,-162 429.513,-162"/>
<polygon fill="#000000" stroke="#000000" points="429.513,-165.5001 439.513,-162 429.5129,-158.5001 429.513,-165.5001"/>
</g>
<!-- SocketsModule -->
<g id="node8" class="node">
<title>SocketsModule</title>
<polygon fill="#8dd3c7" stroke="#000000" points="138.5968,-122 135.5968,-126 114.5968,-126 111.5968,-122 35.4032,-122 35.4032,-86 138.5968,-86 138.5968,-122"/>
<text text-anchor="middle" x="87" y="-99.8" font-family="Times,serif" font-size="14.00" fill="#000000">SocketsModule</text>
</g>
<!-- SocketsModule&#45;&gt;SystemBuilderModule -->
<g id="edge7" class="edge">
<title>SocketsModule&#45;&gt;SystemBuilderModule</title>
<path fill="none" stroke="#000000" d="M134.4234,-122.2222C134.4234,-140.8285 134.4234,-167 134.4234,-167 134.4234,-167 429.7261,-167 429.7261,-167"/>
<polygon fill="#000000" stroke="#000000" points="429.7261,-170.5001 439.7261,-167 429.7261,-163.5001 429.7261,-170.5001"/>
</g>
</g>
</svg>
