<?xml version="1.0" encoding="UTF-8" standalone="no"?>
<!DOCTYPE svg PUBLIC "-//W3C//DTD SVG 1.1//EN"
 "http://www.w3.org/Graphics/SVG/1.1/DTD/svg11.dtd">
<!-- Generated by graphviz version 2.40.1 (20161225.0304)
 -->
<!-- Title: dependencies Pages: 1 -->
<svg width="1633pt" height="284pt"
 viewBox="0.00 0.00 1633.00 284.00" xmlns="http://www.w3.org/2000/svg" xmlns:xlink="http://www.w3.org/1999/xlink">
<g id="graph0" class="graph" transform="scale(1 1) rotate(0) translate(4 280)">
<title>dependencies</title>
<polygon fill="#ffffff" stroke="transparent" points="-4,4 -4,-280 1629,-280 1629,4 -4,4"/>
<text text-anchor="start" x="791.5091" y="-42.4" font-family="sans-serif" font-weight="bold" font-size="14.00" fill="#000000">Legend</text>
<polygon fill="#ffffb3" stroke="transparent" points="578.5,-10 578.5,-30 598.5,-30 598.5,-10 578.5,-10"/>
<text text-anchor="start" x="602.129" y="-15.4" font-family="sans-serif" font-size="14.00" fill="#000000"> &#160;Declarations</text>
<polygon fill="#8dd3c7" stroke="transparent" points="691.5,-10 691.5,-30 711.5,-30 711.5,-10 691.5,-10"/>
<text text-anchor="start" x="715.2251" y="-15.4" font-family="sans-serif" font-size="14.00" fill="#000000"> &#160;Module</text>
<polygon fill="#80b1d3" stroke="transparent" points="777.5,-10 777.5,-30 797.5,-30 797.5,-10 777.5,-10"/>
<text text-anchor="start" x="801.2812" y="-15.4" font-family="sans-serif" font-size="14.00" fill="#000000"> &#160;Bootstrap</text>
<polygon fill="#fdb462" stroke="transparent" points="874.5,-10 874.5,-30 894.5,-30 894.5,-10 874.5,-10"/>
<text text-anchor="start" x="898.1732" y="-15.4" font-family="sans-serif" font-size="14.00" fill="#000000"> &#160;Providers</text>
<polygon fill="#fb8072" stroke="transparent" points="970.5,-10 970.5,-30 990.5,-30 990.5,-10 970.5,-10"/>
<text text-anchor="start" x="994.2258" y="-15.4" font-family="sans-serif" font-size="14.00" fill="#000000"> &#160;Exports</text>
<g id="clust1" class="cluster">
<title>cluster_AngularRedhawkModule</title>
<polygon fill="none" stroke="#000000" stroke-dasharray="1,5" points="8,-70 8,-268 1617,-268 1617,-70 8,-70"/>
</g>
<g id="clust3" class="cluster">
<title>cluster_AngularRedhawkModule_imports</title>
<polygon fill="none" stroke="#000000" points="16,-78 16,-130 1609,-130 1609,-78 16,-78"/>
</g>
<g id="clust4" class="cluster">
<title>cluster_AngularRedhawkModule_exports</title>
<polygon fill="none" stroke="#000000" points="67,-208 67,-260 1557,-260 1557,-208 67,-208"/>
</g>
<!-- RestPythonModule -->
<g id="node1" class="node">
<title>RestPythonModule</title>
<polygon fill="#8dd3c7" stroke="#000000" points="1601.1094,-122 1598.1094,-126 1577.1094,-126 1574.1094,-122 1476.8906,-122 1476.8906,-86 1601.1094,-86 1601.1094,-122"/>
<text text-anchor="middle" x="1539" y="-99.8" font-family="Times,serif" font-size="14.00" fill="#000000">RestPythonModule</text>
</g>
<!-- AngularRedhawkModule -->
<g id="node13" class="node">
<title>AngularRedhawkModule</title>
<polygon fill="#8dd3c7" stroke="#000000" points="861.2949,-187 858.2949,-191 837.2949,-191 834.2949,-187 702.7051,-187 702.7051,-151 861.2949,-151 861.2949,-187"/>
<text text-anchor="middle" x="782" y="-164.8" font-family="Times,serif" font-size="14.00" fill="#000000">AngularRedhawkModule</text>
</g>
<!-- RestPythonModule&#45;&gt;AngularRedhawkModule -->
<g id="edge1" class="edge">
<title>RestPythonModule&#45;&gt;AngularRedhawkModule</title>
<path fill="none" stroke="#000000" d="M1512.9532,-122.1061C1512.9532,-141.3391 1512.9532,-169 1512.9532,-169 1512.9532,-169 871.2675,-169 871.2675,-169"/>
<polygon fill="#000000" stroke="#000000" points="871.2675,-165.5001 861.2675,-169 871.2674,-172.5001 871.2675,-165.5001"/>
</g>
<!-- RedhawkModule -->
<g id="node2" class="node">
<title>RedhawkModule</title>
<polygon fill="#8dd3c7" stroke="#000000" points="1459.423,-122 1456.423,-126 1435.423,-126 1432.423,-122 1346.577,-122 1346.577,-86 1459.423,-86 1459.423,-122"/>
<text text-anchor="middle" x="1403" y="-99.8" font-family="Times,serif" font-size="14.00" fill="#000000">RedhawkModule</text>
</g>
<!-- RedhawkModule&#45;&gt;AngularRedhawkModule -->
<g id="edge2" class="edge">
<title>RedhawkModule&#45;&gt;AngularRedhawkModule</title>
<path fill="none" stroke="#000000" d="M1380.9325,-122.2667C1380.9325,-140.5552 1380.9325,-166 1380.9325,-166 1380.9325,-166 871.2245,-166 871.2245,-166"/>
<polygon fill="#000000" stroke="#000000" points="871.2245,-162.5001 861.2245,-166 871.2245,-169.5001 871.2245,-162.5001"/>
</g>
<!-- DomainModule -->
<g id="node3" class="node">
<title>DomainModule</title>
<polygon fill="#8dd3c7" stroke="#000000" points="1328.1528,-122 1325.1528,-126 1304.1528,-126 1301.1528,-122 1223.8472,-122 1223.8472,-86 1328.1528,-86 1328.1528,-122"/>
<text text-anchor="middle" x="1276" y="-99.8" font-family="Times,serif" font-size="14.00" fill="#000000">DomainModule</text>
</g>
<!-- DomainModule&#45;&gt;AngularRedhawkModule -->
<g id="edge3" class="edge">
<title>DomainModule&#45;&gt;AngularRedhawkModule</title>
<path fill="none" stroke="#000000" d="M1256.3497,-122.0336C1256.3497,-139.0597 1256.3497,-162 1256.3497,-162 1256.3497,-162 871.3955,-162 871.3955,-162"/>
<polygon fill="#000000" stroke="#000000" points="871.3955,-158.5001 861.3955,-162 871.3954,-165.5001 871.3955,-158.5001"/>
</g>
<!-- FileSystemModule -->
<g id="node4" class="node">
<title>FileSystemModule</title>
<polygon fill="#8dd3c7" stroke="#000000" points="1205.052,-122 1202.052,-126 1181.052,-126 1178.052,-122 1082.948,-122 1082.948,-86 1205.052,-86 1205.052,-122"/>
<text text-anchor="middle" x="1144" y="-99.8" font-family="Times,serif" font-size="14.00" fill="#000000">FileSystemModule</text>
</g>
<!-- FileSystemModule&#45;&gt;AngularRedhawkModule -->
<g id="edge4" class="edge">
<title>FileSystemModule&#45;&gt;AngularRedhawkModule</title>
<path fill="none" stroke="#000000" d="M1114.0886,-122.0091C1114.0886,-138.0494 1114.0886,-159 1114.0886,-159 1114.0886,-159 871.5435,-159 871.5435,-159"/>
<polygon fill="#000000" stroke="#000000" points="871.5435,-155.5001 861.5435,-159 871.5434,-162.5001 871.5435,-155.5001"/>
</g>
<!-- WaveformModule -->
<g id="node5" class="node">
<title>WaveformModule</title>
<polygon fill="#8dd3c7" stroke="#000000" points="1064.9061,-122 1061.9061,-126 1040.9061,-126 1037.9061,-122 945.0939,-122 945.0939,-86 1064.9061,-86 1064.9061,-122"/>
<text text-anchor="middle" x="1005" y="-99.8" font-family="Times,serif" font-size="14.00" fill="#000000">WaveformModule</text>
</g>
<!-- WaveformModule&#45;&gt;AngularRedhawkModule -->
<g id="edge5" class="edge">
<title>WaveformModule&#45;&gt;AngularRedhawkModule</title>
<path fill="none" stroke="#000000" d="M974.7586,-122.1243C974.7586,-136.7832 974.7586,-155 974.7586,-155 974.7586,-155 871.2368,-155 871.2368,-155"/>
<polygon fill="#000000" stroke="#000000" points="871.2368,-151.5001 861.2368,-155 871.2367,-158.5001 871.2368,-151.5001"/>
</g>
<!-- DeviceManagerModule -->
<g id="node6" class="node">
<title>DeviceManagerModule</title>
<polygon fill="#8dd3c7" stroke="#000000" points="927.4398,-122 924.4398,-126 903.4398,-126 900.4398,-122 778.5602,-122 778.5602,-86 927.4398,-86 927.4398,-122"/>
<text text-anchor="middle" x="853" y="-99.8" font-family="Times,serif" font-size="14.00" fill="#000000">DeviceManagerModule</text>
</g>
<!-- DeviceManagerModule&#45;&gt;AngularRedhawkModule -->
<g id="edge6" class="edge">
<title>DeviceManagerModule&#45;&gt;AngularRedhawkModule</title>
<path fill="none" stroke="#000000" d="M819.8387,-122.1061C819.8387,-122.1061 819.8387,-140.991 819.8387,-140.991"/>
<polygon fill="#000000" stroke="#000000" points="816.3388,-140.9909 819.8387,-150.991 823.3388,-140.991 816.3388,-140.9909"/>
</g>
<!-- DeviceModule -->
<g id="node7" class="node">
<title>DeviceModule</title>
<polygon fill="#8dd3c7" stroke="#000000" points="760.691,-122 757.691,-126 736.691,-126 733.691,-122 661.309,-122 661.309,-86 760.691,-86 760.691,-122"/>
<text text-anchor="middle" x="711" y="-99.8" font-family="Times,serif" font-size="14.00" fill="#000000">DeviceModule</text>
</g>
<!-- DeviceModule&#45;&gt;AngularRedhawkModule -->
<g id="edge7" class="edge">
<title>DeviceModule&#45;&gt;AngularRedhawkModule</title>
<path fill="none" stroke="#000000" d="M731.7241,-122.1061C731.7241,-122.1061 731.7241,-140.991 731.7241,-140.991"/>
<polygon fill="#000000" stroke="#000000" points="728.2241,-140.9909 731.7241,-150.991 735.2241,-140.991 728.2241,-140.9909"/>
</g>
<!-- PortModule -->
<g id="node8" class="node">
<title>PortModule</title>
<polygon fill="#8dd3c7" stroke="#000000" points="643.3837,-122 640.3837,-126 619.3837,-126 616.3837,-122 560.6163,-122 560.6163,-86 643.3837,-86 643.3837,-122"/>
<text text-anchor="middle" x="602" y="-99.8" font-family="Times,serif" font-size="14.00" fill="#000000">PortModule</text>
</g>
<!-- PortModule&#45;&gt;AngularRedhawkModule -->
<g id="edge8" class="edge">
<title>PortModule&#45;&gt;AngularRedhawkModule</title>
<path fill="none" stroke="#000000" d="M634.625,-122.1243C634.625,-136.7832 634.625,-155 634.625,-155 634.625,-155 692.7044,-155 692.7044,-155"/>
<polygon fill="#000000" stroke="#000000" points="692.7044,-158.5001 702.7044,-155 692.7044,-151.5001 692.7044,-158.5001"/>
</g>
<!-- PropertyModule -->
<g id="node9" class="node">
<title>PropertyModule</title>
<polygon fill="#8dd3c7" stroke="#000000" points="542.7591,-122 539.7591,-126 518.7591,-126 515.7591,-122 435.2409,-122 435.2409,-86 542.7591,-86 542.7591,-122"/>
<text text-anchor="middle" x="489" y="-99.8" font-family="Times,serif" font-size="14.00" fill="#000000">PropertyModule</text>
</g>
<!-- PropertyModule&#45;&gt;AngularRedhawkModule -->
<g id="edge9" class="edge">
<title>PropertyModule&#45;&gt;AngularRedhawkModule</title>
<path fill="none" stroke="#000000" d="M519.625,-122.0091C519.625,-138.0494 519.625,-159 519.625,-159 519.625,-159 692.5668,-159 692.5668,-159"/>
<polygon fill="#000000" stroke="#000000" points="692.5669,-162.5001 702.5668,-159 692.5668,-155.5001 692.5669,-162.5001"/>
</g>
<!-- ResourceModule -->
<g id="node10" class="node">
<title>ResourceModule</title>
<polygon fill="#8dd3c7" stroke="#000000" points="416.636,-122 413.636,-126 392.636,-126 389.636,-122 305.364,-122 305.364,-86 416.636,-86 416.636,-122"/>
<text text-anchor="middle" x="361" y="-99.8" font-family="Times,serif" font-size="14.00" fill="#000000">ResourceModule</text>
</g>
<!-- ResourceModule&#45;&gt;AngularRedhawkModule -->
<g id="edge10" class="edge">
<title>ResourceModule&#45;&gt;AngularRedhawkModule</title>
<path fill="none" stroke="#000000" d="M390.125,-122.0336C390.125,-139.0597 390.125,-162 390.125,-162 390.125,-162 692.6982,-162 692.6982,-162"/>
<polygon fill="#000000" stroke="#000000" points="692.6983,-165.5001 702.6982,-162 692.6982,-158.5001 692.6983,-165.5001"/>
</g>
<!-- SocketsModule -->
<g id="node11" class="node">
<title>SocketsModule</title>
<polygon fill="#8dd3c7" stroke="#000000" points="287.5968,-122 284.5968,-126 263.5968,-126 260.5968,-122 184.4032,-122 184.4032,-86 287.5968,-86 287.5968,-122"/>
<text text-anchor="middle" x="236" y="-99.8" font-family="Times,serif" font-size="14.00" fill="#000000">SocketsModule</text>
</g>
<!-- SocketsModule&#45;&gt;AngularRedhawkModule -->
<g id="edge11" class="edge">
<title>SocketsModule&#45;&gt;AngularRedhawkModule</title>
<path fill="none" stroke="#000000" d="M263.125,-122.2667C263.125,-140.5552 263.125,-166 263.125,-166 263.125,-166 692.6292,-166 692.6292,-166"/>
<polygon fill="#000000" stroke="#000000" points="692.6293,-169.5001 702.6292,-166 692.6292,-162.5001 692.6293,-169.5001"/>
</g>
<!-- SystemBuilderModule -->
<g id="node12" class="node">
<title>SystemBuilderModule</title>
<polygon fill="#8dd3c7" stroke="#000000" points="166.266,-122 163.266,-126 142.266,-126 139.266,-122 23.734,-122 23.734,-86 166.266,-86 166.266,-122"/>
<text text-anchor="middle" x="95" y="-99.8" font-family="Times,serif" font-size="14.00" fill="#000000">SystemBuilderModule</text>
</g>
<!-- SystemBuilderModule&#45;&gt;AngularRedhawkModule -->
<g id="edge12" class="edge">
<title>SystemBuilderModule&#45;&gt;AngularRedhawkModule</title>
<path fill="none" stroke="#000000" d="M120.625,-122.1061C120.625,-141.3391 120.625,-169 120.625,-169 120.625,-169 692.5515,-169 692.5515,-169"/>
<polygon fill="#000000" stroke="#000000" points="692.5515,-172.5001 702.5515,-169 692.5514,-165.5001 692.5515,-172.5001"/>
</g>
<!-- RedhawkModule  -->
<g id="node14" class="node">
<title>RedhawkModule </title>
<polygon fill="#fb8072" stroke="#000000" points="1548.9222,-252 1433.0778,-252 1433.0778,-216 1548.9222,-216 1548.9222,-252"/>
<text text-anchor="middle" x="1491" y="-229.8" font-family="Times,serif" font-size="14.00" fill="#000000">RedhawkModule </text>
</g>
<!-- AngularRedhawkModule&#45;&gt;RedhawkModule  -->
<g id="edge13" class="edge">
<title>AngularRedhawkModule&#45;&gt;RedhawkModule </title>
<path fill="none" stroke="#000000" stroke-dasharray="5,2" d="M861.4493,-173C1037.7294,-173 1446.125,-173 1446.125,-173 1446.125,-173 1446.125,-205.698 1446.125,-205.698"/>
<polygon fill="#000000" stroke="#000000" points="1442.6251,-205.698 1446.125,-215.698 1449.6251,-205.698 1442.6251,-205.698"/>
</g>
<!-- DomainModule  -->
<g id="node15" class="node">
<title>DomainModule </title>
<polygon fill="#fb8072" stroke="#000000" points="1415.1523,-252 1306.8477,-252 1306.8477,-216 1415.1523,-216 1415.1523,-252"/>
<text text-anchor="middle" x="1361" y="-229.8" font-family="Times,serif" font-size="14.00" fill="#000000">DomainModule </text>
</g>
<!-- AngularRedhawkModule&#45;&gt;DomainModule  -->
<g id="edge14" class="edge">
<title>AngularRedhawkModule&#45;&gt;DomainModule </title>
<path fill="none" stroke="#000000" stroke-dasharray="5,2" d="M861.3215,-177C1010.4227,-177 1317.625,-177 1317.625,-177 1317.625,-177 1317.625,-205.9648 1317.625,-205.9648"/>
<polygon fill="#000000" stroke="#000000" points="1314.1251,-205.9648 1317.625,-215.9648 1321.1251,-205.9649 1314.1251,-205.9648"/>
</g>
<!-- FileSystemModule  -->
<g id="node16" class="node">
<title>FileSystemModule </title>
<polygon fill="#fb8072" stroke="#000000" points="1289.0512,-252 1162.9488,-252 1162.9488,-216 1289.0512,-216 1289.0512,-252"/>
<text text-anchor="middle" x="1226" y="-229.8" font-family="Times,serif" font-size="14.00" fill="#000000">FileSystemModule </text>
</g>
<!-- AngularRedhawkModule&#45;&gt;FileSystemModule  -->
<g id="edge15" class="edge">
<title>AngularRedhawkModule&#45;&gt;FileSystemModule </title>
<path fill="none" stroke="#000000" stroke-dasharray="5,2" d="M861.447,-180C978.6385,-180 1184.125,-180 1184.125,-180 1184.125,-180 1184.125,-205.7181 1184.125,-205.7181"/>
<polygon fill="#000000" stroke="#000000" points="1180.6251,-205.718 1184.125,-215.7181 1187.6251,-205.7181 1180.6251,-205.718"/>
</g>
<!-- WaveformModule  -->
<g id="node17" class="node">
<title>WaveformModule </title>
<polygon fill="#fb8072" stroke="#000000" points="1145.4054,-252 1022.5946,-252 1022.5946,-216 1145.4054,-216 1145.4054,-252"/>
<text text-anchor="middle" x="1084" y="-229.8" font-family="Times,serif" font-size="14.00" fill="#000000">WaveformModule </text>
</g>
<!-- AngularRedhawkModule&#45;&gt;WaveformModule  -->
<g id="edge16" class="edge">
<title>AngularRedhawkModule&#45;&gt;WaveformModule </title>
<path fill="none" stroke="#000000" stroke-dasharray="5,2" d="M861.2061,-184C938.2091,-184 1043.625,-184 1043.625,-184 1043.625,-184 1043.625,-205.9489 1043.625,-205.9489"/>
<polygon fill="#000000" stroke="#000000" points="1040.1251,-205.9488 1043.625,-215.9489 1047.1251,-205.9489 1040.1251,-205.9488"/>
</g>
<!-- DeviceManagerModule  -->
<g id="node18" class="node">
<title>DeviceManagerModule </title>
<polygon fill="#fb8072" stroke="#000000" points="1004.4404,-252 851.5596,-252 851.5596,-216 1004.4404,-216 1004.4404,-252"/>
<text text-anchor="middle" x="928" y="-229.8" font-family="Times,serif" font-size="14.00" fill="#000000">DeviceManagerModule </text>
</g>
<!-- AngularRedhawkModule&#45;&gt;DeviceManagerModule  -->
<g id="edge17" class="edge">
<title>AngularRedhawkModule&#45;&gt;DeviceManagerModule </title>
<path fill="none" stroke="#000000" stroke-dasharray="5,2" d="M856.4637,-187.1061C856.4637,-187.1061 856.4637,-205.991 856.4637,-205.991"/>
<polygon fill="#000000" stroke="#000000" points="852.9638,-205.9909 856.4637,-215.991 859.9638,-205.991 852.9638,-205.9909"/>
</g>
<!-- DeviceModule  -->
<g id="node19" class="node">
<title>DeviceModule </title>
<polygon fill="#fb8072" stroke="#000000" points="833.1913,-252 730.8087,-252 730.8087,-216 833.1913,-216 833.1913,-252"/>
<text text-anchor="middle" x="782" y="-229.8" font-family="Times,serif" font-size="14.00" fill="#000000">DeviceModule </text>
</g>
<!-- AngularRedhawkModule&#45;&gt;DeviceModule  -->
<g id="edge18" class="edge">
<title>AngularRedhawkModule&#45;&gt;DeviceModule </title>
<path fill="none" stroke="#000000" stroke-dasharray="5,2" d="M782,-187.1061C782,-187.1061 782,-205.991 782,-205.991"/>
<polygon fill="#000000" stroke="#000000" points="778.5001,-205.9909 782,-215.991 785.5001,-205.991 778.5001,-205.9909"/>
</g>
<!-- PortModule  -->
<g id="node20" class="node">
<title>PortModule </title>
<polygon fill="#fb8072" stroke="#000000" points="712.3845,-252 625.6155,-252 625.6155,-216 712.3845,-216 712.3845,-252"/>
<text text-anchor="middle" x="669" y="-229.8" font-family="Times,serif" font-size="14.00" fill="#000000">PortModule </text>
</g>
<!-- AngularRedhawkModule&#45;&gt;PortModule  -->
<g id="edge19" class="edge">
<title>AngularRedhawkModule&#45;&gt;PortModule </title>
<path fill="none" stroke="#000000" stroke-dasharray="5,2" d="M707.5223,-187.1061C707.5223,-187.1061 707.5223,-205.991 707.5223,-205.991"/>
<polygon fill="#000000" stroke="#000000" points="704.0223,-205.9909 707.5223,-215.991 711.0223,-205.991 704.0223,-205.9909"/>
</g>
<!-- PropertyModule  -->
<g id="node21" class="node">
<title>PropertyModule </title>
<polygon fill="#fb8072" stroke="#000000" points="607.7591,-252 496.2409,-252 496.2409,-216 607.7591,-216 607.7591,-252"/>
<text text-anchor="middle" x="552" y="-229.8" font-family="Times,serif" font-size="14.00" fill="#000000">PropertyModule </text>
</g>
<!-- AngularRedhawkModule&#45;&gt;PropertyModule  -->
<g id="edge20" class="edge">
<title>AngularRedhawkModule&#45;&gt;PropertyModule </title>
<path fill="none" stroke="#000000" stroke-dasharray="5,2" d="M702.6443,-184C647.5853,-184 584.0938,-184 584.0938,-184 584.0938,-184 584.0938,-205.9489 584.0938,-205.9489"/>
<polygon fill="#000000" stroke="#000000" points="580.5939,-205.9488 584.0938,-215.9489 587.5939,-205.9489 580.5939,-205.9488"/>
</g>
<!-- ResourceModule  -->
<g id="node22" class="node">
<title>ResourceModule </title>
<polygon fill="#fb8072" stroke="#000000" points="478.6355,-252 363.3645,-252 363.3645,-216 478.6355,-216 478.6355,-252"/>
<text text-anchor="middle" x="421" y="-229.8" font-family="Times,serif" font-size="14.00" fill="#000000">ResourceModule </text>
</g>
<!-- AngularRedhawkModule&#45;&gt;ResourceModule  -->
<g id="edge21" class="edge">
<title>AngularRedhawkModule&#45;&gt;ResourceModule </title>
<path fill="none" stroke="#000000" stroke-dasharray="5,2" d="M702.4579,-180C606.196,-180 456.8442,-180 456.8442,-180 456.8442,-180 456.8442,-205.7181 456.8442,-205.7181"/>
<polygon fill="#000000" stroke="#000000" points="453.3442,-205.718 456.8442,-215.7181 460.3442,-205.7181 453.3442,-205.718"/>
</g>
<!-- SocketsModule  -->
<g id="node23" class="node">
<title>SocketsModule </title>
<polygon fill="#fb8072" stroke="#000000" points="345.0976,-252 238.9024,-252 238.9024,-216 345.0976,-216 345.0976,-252"/>
<text text-anchor="middle" x="292" y="-229.8" font-family="Times,serif" font-size="14.00" fill="#000000">SocketsModule </text>
</g>
<!-- AngularRedhawkModule&#45;&gt;SocketsModule  -->
<g id="edge22" class="edge">
<title>AngularRedhawkModule&#45;&gt;SocketsModule </title>
<path fill="none" stroke="#000000" stroke-dasharray="5,2" d="M702.6994,-177C571.9015,-177 325.2404,-177 325.2404,-177 325.2404,-177 325.2404,-205.9648 325.2404,-205.9648"/>
<polygon fill="#000000" stroke="#000000" points="321.7404,-205.9648 325.2404,-215.9648 328.7404,-205.9649 321.7404,-205.9648"/>
</g>
<!-- SystemBuilderModule  -->
<g id="node24" class="node">
<title>SystemBuilderModule </title>
<polygon fill="#fb8072" stroke="#000000" points="221.266,-252 74.734,-252 74.734,-216 221.266,-216 221.266,-252"/>
<text text-anchor="middle" x="148" y="-229.8" font-family="Times,serif" font-size="14.00" fill="#000000">SystemBuilderModule </text>
</g>
<!-- AngularRedhawkModule&#45;&gt;SystemBuilderModule  -->
<g id="edge23" class="edge">
<title>AngularRedhawkModule&#45;&gt;SystemBuilderModule </title>
<path fill="none" stroke="#000000" stroke-dasharray="5,2" d="M702.6781,-173C544.0477,-173 202.7922,-173 202.7922,-173 202.7922,-173 202.7922,-205.698 202.7922,-205.698"/>
<polygon fill="#000000" stroke="#000000" points="199.2922,-205.698 202.7923,-215.698 206.2922,-205.698 199.2922,-205.698"/>
</g>
</g>
</svg>
