<?xml version="1.0" encoding="UTF-8" standalone="no"?>
<!DOCTYPE svg PUBLIC "-//W3C//DTD SVG 1.1//EN"
 "http://www.w3.org/Graphics/SVG/1.1/DTD/svg11.dtd">
<!-- Generated by graphviz version 2.40.1 (20161225.0304)
 -->
<!-- Title: dependencies Pages: 1 -->
<svg width="504pt" height="284pt"
 viewBox="0.00 0.00 504.00 284.00" xmlns="http://www.w3.org/2000/svg" xmlns:xlink="http://www.w3.org/1999/xlink">
<g id="graph0" class="graph" transform="scale(1 1) rotate(0) translate(4 280)">
<title>dependencies</title>
<polygon fill="#ffffff" stroke="transparent" points="-4,4 -4,-280 500,-280 500,4 -4,4"/>
<text text-anchor="start" x="227.0091" y="-42.4" font-family="sans-serif" font-weight="bold" font-size="14.00" fill="#000000">Legend</text>
<polygon fill="#ffffb3" stroke="transparent" points="14,-10 14,-30 34,-30 34,-10 14,-10"/>
<text text-anchor="start" x="37.629" y="-15.4" font-family="sans-serif" font-size="14.00" fill="#000000"> &#160;Declarations</text>
<polygon fill="#8dd3c7" stroke="transparent" points="127,-10 127,-30 147,-30 147,-10 127,-10"/>
<text text-anchor="start" x="150.7251" y="-15.4" font-family="sans-serif" font-size="14.00" fill="#000000"> &#160;Module</text>
<polygon fill="#80b1d3" stroke="transparent" points="213,-10 213,-30 233,-30 233,-10 213,-10"/>
<text text-anchor="start" x="236.7812" y="-15.4" font-family="sans-serif" font-size="14.00" fill="#000000"> &#160;Bootstrap</text>
<polygon fill="#fdb462" stroke="transparent" points="310,-10 310,-30 330,-30 330,-10 310,-10"/>
<text text-anchor="start" x="333.6732" y="-15.4" font-family="sans-serif" font-size="14.00" fill="#000000"> &#160;Providers</text>
<polygon fill="#fb8072" stroke="transparent" points="406,-10 406,-30 426,-30 426,-10 406,-10"/>
<text text-anchor="start" x="429.7258" y="-15.4" font-family="sans-serif" font-size="14.00" fill="#000000"> &#160;Exports</text>
<g id="clust1" class="cluster">
<title>cluster_ResourceModule</title>
<polygon fill="none" stroke="#000000" stroke-dasharray="1,5" points="104,-70 104,-268 392,-268 392,-70 104,-70"/>
</g>
<g id="clust2" class="cluster">
<title>cluster_ResourceModule_declarations</title>
<polygon fill="none" stroke="#000000" points="115,-78 115,-130 381,-130 381,-78 115,-78"/>
</g>
<g id="clust6" class="cluster">
<title>cluster_ResourceModule_exports</title>
<polygon fill="none" stroke="#000000" points="112,-208 112,-260 384,-260 384,-208 112,-208"/>
</g>
<!-- ResourceRefPipe -->
<g id="node1" class="node">
<title>ResourceRefPipe</title>
<polygon fill="#ffffb3" stroke="#000000" points="372.6854,-122 259.3146,-122 259.3146,-86 372.6854,-86 372.6854,-122"/>
<text text-anchor="middle" x="316" y="-99.8" font-family="Times,serif" font-size="14.00" fill="#000000">ResourceRefPipe</text>
</g>
<!-- ResourceModule -->
<g id="node3" class="node">
<title>ResourceModule</title>
<polygon fill="#8dd3c7" stroke="#000000" points="238.636,-187 235.636,-191 214.636,-191 211.636,-187 127.364,-187 127.364,-151 238.636,-151 238.636,-187"/>
<text text-anchor="middle" x="183" y="-164.8" font-family="Times,serif" font-size="14.00" fill="#000000">ResourceModule</text>
</g>
<!-- ResourceRefPipe&#45;&gt;ResourceModule -->
<g id="edge1" class="edge">
<title>ResourceRefPipe&#45;&gt;ResourceModule</title>
<path fill="none" stroke="#000000" d="M334.9475,-122.0225C334.9475,-139.3734 334.9475,-163 334.9475,-163 334.9475,-163 248.7169,-163 248.7169,-163"/>
<polygon fill="#000000" stroke="#000000" points="248.7169,-159.5001 238.7169,-163 248.7168,-166.5001 248.7169,-159.5001"/>
</g>
<!-- ResourceRefsPipe -->
<g id="node2" class="node">
<title>ResourceRefsPipe</title>
<polygon fill="#ffffb3" stroke="#000000" points="241.1304,-122 122.8696,-122 122.8696,-86 241.1304,-86 241.1304,-122"/>
<text text-anchor="middle" x="182" y="-99.8" font-family="Times,serif" font-size="14.00" fill="#000000">ResourceRefsPipe</text>
</g>
<!-- ResourceRefsPipe&#45;&gt;ResourceModule -->
<g id="edge2" class="edge">
<title>ResourceRefsPipe&#45;&gt;ResourceModule</title>
<path fill="none" stroke="#000000" d="M183,-122.1061C183,-122.1061 183,-140.991 183,-140.991"/>
<polygon fill="#000000" stroke="#000000" points="179.5001,-140.9909 183,-150.991 186.5001,-140.991 179.5001,-140.9909"/>
</g>
<!-- ResourceRefPipe  -->
<g id="node4" class="node">
<title>ResourceRefPipe </title>
<polygon fill="#fb8072" stroke="#000000" points="376.1856,-252 259.8144,-252 259.8144,-216 376.1856,-216 376.1856,-252"/>
<text text-anchor="middle" x="318" y="-229.8" font-family="Times,serif" font-size="14.00" fill="#000000">ResourceRefPipe </text>
</g>
<!-- ResourceModule&#45;&gt;ResourceRefPipe  -->
<g id="edge3" class="edge">
<title>ResourceModule&#45;&gt;ResourceRefPipe </title>
<path fill="none" stroke="#000000" stroke-dasharray="5,2" d="M238.8119,-175C267.8269,-175 297.3025,-175 297.3025,-175 297.3025,-175 297.3025,-205.9775 297.3025,-205.9775"/>
<polygon fill="#000000" stroke="#000000" points="293.8026,-205.9774 297.3025,-215.9775 300.8026,-205.9775 293.8026,-205.9774"/>
</g>
<!-- ResourceRefsPipe  -->
<g id="node5" class="node">
<title>ResourceRefsPipe </title>
<polygon fill="#fb8072" stroke="#000000" points="242.1299,-252 119.8701,-252 119.8701,-216 242.1299,-216 242.1299,-252"/>
<text text-anchor="middle" x="181" y="-229.8" font-family="Times,serif" font-size="14.00" fill="#000000">ResourceRefsPipe </text>
</g>
<!-- ResourceModule&#45;&gt;ResourceRefsPipe  -->
<g id="edge4" class="edge">
<title>ResourceModule&#45;&gt;ResourceRefsPipe </title>
<path fill="none" stroke="#000000" stroke-dasharray="5,2" d="M183,-187.1061C183,-187.1061 183,-205.991 183,-205.991"/>
<polygon fill="#000000" stroke="#000000" points="179.5001,-205.9909 183,-215.991 186.5001,-205.991 179.5001,-205.9909"/>
</g>
</g>
</svg>
