<?xml version="1.0" encoding="UTF-8" standalone="no"?>
<!DOCTYPE svg PUBLIC "-//W3C//DTD SVG 1.1//EN"
 "http://www.w3.org/Graphics/SVG/1.1/DTD/svg11.dtd">
<!-- Generated by graphviz version 2.40.1 (20161225.0304)
 -->
<!-- Title: dependencies Pages: 1 -->
<svg width="504pt" height="276pt"
 viewBox="0.00 0.00 504.00 276.00" xmlns="http://www.w3.org/2000/svg" xmlns:xlink="http://www.w3.org/1999/xlink">
<g id="graph0" class="graph" transform="scale(1 1) rotate(0) translate(4 272)">
<title>dependencies</title>
<polygon fill="#ffffff" stroke="transparent" points="-4,4 -4,-272 500,-272 500,4 -4,4"/>
<text text-anchor="start" x="227.0091" y="-42.4" font-family="sans-serif" font-weight="bold" font-size="14.00" fill="#000000">Legend</text>
<polygon fill="#ffffb3" stroke="transparent" points="14,-10 14,-30 34,-30 34,-10 14,-10"/>
<text text-anchor="start" x="37.629" y="-15.4" font-family="sans-serif" font-size="14.00" fill="#000000"> &#160;Declarations</text>
<polygon fill="#8dd3c7" stroke="transparent" points="127,-10 127,-30 147,-30 147,-10 127,-10"/>
<text text-anchor="start" x="150.7251" y="-15.4" font-family="sans-serif" font-size="14.00" fill="#000000"> &#160;Module</text>
<polygon fill="#80b1d3" stroke="transparent" points="213,-10 213,-30 233,-30 233,-10 213,-10"/>
<text text-anchor="start" x="236.7812" y="-15.4" font-family="sans-serif" font-size="14.00" fill="#000000"> &#160;Bootstrap</text>
<polygon fill="#fdb462" stroke="transparent" points="310,-10 310,-30 330,-30 330,-10 310,-10"/>
<text text-anchor="start" x="333.6732" y="-15.4" font-family="sans-serif" font-size="14.00" fill="#000000"> &#160;Providers</text>
<polygon fill="#fb8072" stroke="transparent" points="406,-10 406,-30 426,-30 426,-10 406,-10"/>
<text text-anchor="start" x="429.7258" y="-15.4" font-family="sans-serif" font-size="14.00" fill="#000000"> &#160;Exports</text>
<g id="clust1" class="cluster">
<title>cluster_ComponentModule</title>
<polygon fill="none" stroke="#000000" stroke-dasharray="1,5" points="22,-70 22,-260 474,-260 474,-70 22,-70"/>
</g>
<g id="clust2" class="cluster">
<title>cluster_ComponentModule_declarations</title>
<polygon fill="none" stroke="#000000" points="316,-143 316,-195 466,-195 466,-143 316,-143"/>
</g>
<g id="clust3" class="cluster">
<title>cluster_ComponentModule_ComponentDirective_providers</title>
<polygon fill="none" stroke="#000000" points="200,-78 200,-130 466,-130 466,-78 200,-78"/>
</g>
<g id="clust4" class="cluster">
<title>cluster_ComponentModule_imports</title>
<polygon fill="none" stroke="#000000" points="30,-143 30,-195 308,-195 308,-143 30,-143"/>
</g>
<!-- ComponentDirective -->
<g id="node1" class="node">
<title>ComponentDirective</title>
<polygon fill="#ffffb3" stroke="#000000" points="457.9158,-187 324.0842,-187 324.0842,-151 457.9158,-151 457.9158,-187"/>
<text text-anchor="middle" x="391" y="-164.8" font-family="Times,serif" font-size="14.00" fill="#000000">ComponentDirective</text>
</g>
<!-- ComponentModule -->
<g id="node2" class="node">
<title>ComponentModule</title>
<polygon fill="#8dd3c7" stroke="#000000" points="300.3823,-252 297.3823,-256 276.3823,-256 273.3823,-252 175.6177,-252 175.6177,-216 300.3823,-216 300.3823,-252"/>
<text text-anchor="middle" x="238" y="-229.8" font-family="Times,serif" font-size="14.00" fill="#000000">ComponentModule</text>
</g>
<!-- ComponentDirective&#45;&gt;ComponentModule -->
<g id="edge1" class="edge">
<title>ComponentDirective&#45;&gt;ComponentModule</title>
<path fill="none" stroke="#000000" d="M391,-187.1061C391,-206.3391 391,-234 391,-234 391,-234 310.6724,-234 310.6724,-234"/>
<polygon fill="#000000" stroke="#000000" points="310.6724,-230.5001 300.6724,-234 310.6724,-237.5001 310.6724,-230.5001"/>
</g>
<!-- componentServiceProvider.() -->
<g id="node3" class="node">
<title>componentServiceProvider.()</title>
<ellipse fill="#fdb462" stroke="#000000" cx="333" cy="-104" rx="125.002" ry="18"/>
<text text-anchor="middle" x="333" y="-99.8" font-family="Times,serif" font-size="14.00" fill="#000000">componentServiceProvider.()</text>
</g>
<!-- componentServiceProvider.()&#45;&gt;ComponentDirective -->
<g id="edge2" class="edge">
<title>componentServiceProvider.()&#45;&gt;ComponentDirective</title>
<path fill="none" stroke="#000000" d="M391,-120.0674C391,-120.0674 391,-140.8237 391,-140.8237"/>
<polygon fill="#000000" stroke="#000000" points="387.5001,-140.8236 391,-150.8237 394.5001,-140.8237 387.5001,-140.8236"/>
</g>
<!-- RestPythonModule -->
<g id="node4" class="node">
<title>RestPythonModule</title>
<polygon fill="#8dd3c7" stroke="#000000" points="300.1094,-187 297.1094,-191 276.1094,-191 273.1094,-187 175.8906,-187 175.8906,-151 300.1094,-151 300.1094,-187"/>
<text text-anchor="middle" x="238" y="-164.8" font-family="Times,serif" font-size="14.00" fill="#000000">RestPythonModule</text>
</g>
<!-- RestPythonModule&#45;&gt;ComponentModule -->
<g id="edge3" class="edge">
<title>RestPythonModule&#45;&gt;ComponentModule</title>
<path fill="none" stroke="#000000" d="M238,-187.1061C238,-187.1061 238,-205.991 238,-205.991"/>
<polygon fill="#000000" stroke="#000000" points="234.5001,-205.9909 238,-215.991 241.5001,-205.991 234.5001,-205.9909"/>
</g>
<!-- WaveformModule -->
<g id="node5" class="node">
<title>WaveformModule</title>
<polygon fill="#8dd3c7" stroke="#000000" points="157.9061,-187 154.9061,-191 133.9061,-191 130.9061,-187 38.0939,-187 38.0939,-151 157.9061,-151 157.9061,-187"/>
<text text-anchor="middle" x="98" y="-164.8" font-family="Times,serif" font-size="14.00" fill="#000000">WaveformModule</text>
</g>
<!-- WaveformModule&#45;&gt;ComponentModule -->
<g id="edge4" class="edge">
<title>WaveformModule&#45;&gt;ComponentModule</title>
<path fill="none" stroke="#000000" d="M98,-187.1061C98,-206.3391 98,-234 98,-234 98,-234 165.3706,-234 165.3706,-234"/>
<polygon fill="#000000" stroke="#000000" points="165.3707,-237.5001 175.3706,-234 165.3706,-230.5001 165.3707,-237.5001"/>
</g>
</g>
</svg>
