<?xml version="1.0" encoding="UTF-8" standalone="no"?>
<!DOCTYPE svg PUBLIC "-//W3C//DTD SVG 1.1//EN"
 "http://www.w3.org/Graphics/SVG/1.1/DTD/svg11.dtd">
<!-- Generated by graphviz version 2.40.1 (20161225.0304)
 -->
<!-- Title: dependencies Pages: 1 -->
<svg width="504pt" height="284pt"
 viewBox="0.00 0.00 504.00 284.00" xmlns="http://www.w3.org/2000/svg" xmlns:xlink="http://www.w3.org/1999/xlink">
<g id="graph0" class="graph" transform="scale(1 1) rotate(0) translate(4 280)">
<title>dependencies</title>
<polygon fill="#ffffff" stroke="transparent" points="-4,4 -4,-280 500,-280 500,4 -4,4"/>
<text text-anchor="start" x="227.0091" y="-42.4" font-family="sans-serif" font-weight="bold" font-size="14.00" fill="#000000">Legend</text>
<polygon fill="#ffffb3" stroke="transparent" points="14,-10 14,-30 34,-30 34,-10 14,-10"/>
<text text-anchor="start" x="37.629" y="-15.4" font-family="sans-serif" font-size="14.00" fill="#000000"> &#160;Declarations</text>
<polygon fill="#8dd3c7" stroke="transparent" points="127,-10 127,-30 147,-30 147,-10 127,-10"/>
<text text-anchor="start" x="150.7251" y="-15.4" font-family="sans-serif" font-size="14.00" fill="#000000"> &#160;Module</text>
<polygon fill="#80b1d3" stroke="transparent" points="213,-10 213,-30 233,-30 233,-10 213,-10"/>
<text text-anchor="start" x="236.7812" y="-15.4" font-family="sans-serif" font-size="14.00" fill="#000000"> &#160;Bootstrap</text>
<polygon fill="#fdb462" stroke="transparent" points="310,-10 310,-30 330,-30 330,-10 310,-10"/>
<text text-anchor="start" x="333.6732" y="-15.4" font-family="sans-serif" font-size="14.00" fill="#000000"> &#160;Providers</text>
<polygon fill="#fb8072" stroke="transparent" points="406,-10 406,-30 426,-30 426,-10 406,-10"/>
<text text-anchor="start" x="429.7258" y="-15.4" font-family="sans-serif" font-size="14.00" fill="#000000"> &#160;Exports</text>
<g id="clust1" class="cluster">
<title>cluster_PropertyModule</title>
<polygon fill="none" stroke="#000000" stroke-dasharray="1,5" points="45,-70 45,-268 451,-268 451,-70 45,-70"/>
</g>
<g id="clust2" class="cluster">
<title>cluster_PropertyModule_declarations</title>
<polygon fill="none" stroke="#000000" points="58,-78 58,-130 437,-130 437,-78 58,-78"/>
</g>
<g id="clust7" class="cluster">
<title>cluster_PropertyModule_exports</title>
<polygon fill="none" stroke="#000000" points="53,-208 53,-260 443,-260 443,-208 53,-208"/>
</g>
<!-- PropretiesOfKindPipe -->
<g id="node1" class="node">
<title>PropretiesOfKindPipe</title>
<polygon fill="#ffffb3" stroke="#000000" points="429.4116,-122 288.5884,-122 288.5884,-86 429.4116,-86 429.4116,-122"/>
<text text-anchor="middle" x="359" y="-99.8" font-family="Times,serif" font-size="14.00" fill="#000000">PropretiesOfKindPipe</text>
</g>
<!-- PropertyModule -->
<g id="node4" class="node">
<title>PropertyModule</title>
<polygon fill="#8dd3c7" stroke="#000000" points="275.7591,-187 272.7591,-191 251.7591,-191 248.7591,-187 168.2409,-187 168.2409,-151 275.7591,-151 275.7591,-187"/>
<text text-anchor="middle" x="222" y="-164.8" font-family="Times,serif" font-size="14.00" fill="#000000">PropertyModule</text>
</g>
<!-- PropretiesOfKindPipe&#45;&gt;PropertyModule -->
<g id="edge1" class="edge">
<title>PropretiesOfKindPipe&#45;&gt;PropertyModule</title>
<path fill="none" stroke="#000000" d="M383.1518,-122.0225C383.1518,-139.3734 383.1518,-163 383.1518,-163 383.1518,-163 286.1095,-163 286.1095,-163"/>
<polygon fill="#000000" stroke="#000000" points="286.1096,-159.5001 276.1095,-163 286.1095,-166.5001 286.1096,-159.5001"/>
</g>
<!-- PropertiesPipe -->
<g id="node2" class="node">
<title>PropertiesPipe</title>
<polygon fill="#ffffb3" stroke="#000000" points="270.6472,-122 173.3528,-122 173.3528,-86 270.6472,-86 270.6472,-122"/>
<text text-anchor="middle" x="222" y="-99.8" font-family="Times,serif" font-size="14.00" fill="#000000">PropertiesPipe</text>
</g>
<!-- PropertiesPipe&#45;&gt;PropertyModule -->
<g id="edge2" class="edge">
<title>PropertiesPipe&#45;&gt;PropertyModule</title>
<path fill="none" stroke="#000000" d="M222,-122.1061C222,-122.1061 222,-140.991 222,-140.991"/>
<polygon fill="#000000" stroke="#000000" points="218.5001,-140.9909 222,-150.991 225.5001,-140.991 218.5001,-140.9909"/>
</g>
<!-- PropertyPipe -->
<g id="node3" class="node">
<title>PropertyPipe</title>
<polygon fill="#ffffb3" stroke="#000000" points="155.5969,-122 66.4031,-122 66.4031,-86 155.5969,-86 155.5969,-122"/>
<text text-anchor="middle" x="111" y="-99.8" font-family="Times,serif" font-size="14.00" fill="#000000">PropertyPipe</text>
</g>
<!-- PropertyPipe&#45;&gt;PropertyModule -->
<g id="edge3" class="edge">
<title>PropertyPipe&#45;&gt;PropertyModule</title>
<path fill="none" stroke="#000000" d="M124.3495,-122.0225C124.3495,-139.3734 124.3495,-163 124.3495,-163 124.3495,-163 158.0337,-163 158.0337,-163"/>
<polygon fill="#000000" stroke="#000000" points="158.0337,-166.5001 168.0337,-163 158.0336,-159.5001 158.0337,-166.5001"/>
</g>
<!-- PropretiesOfKindPipe  -->
<g id="node5" class="node">
<title>PropretiesOfKindPipe </title>
<polygon fill="#fb8072" stroke="#000000" points="434.911,-252 291.089,-252 291.089,-216 434.911,-216 434.911,-252"/>
<text text-anchor="middle" x="363" y="-229.8" font-family="Times,serif" font-size="14.00" fill="#000000">PropretiesOfKindPipe </text>
</g>
<!-- PropertyModule&#45;&gt;PropretiesOfKindPipe  -->
<g id="edge4" class="edge">
<title>PropertyModule&#45;&gt;PropretiesOfKindPipe </title>
<path fill="none" stroke="#000000" stroke-dasharray="5,2" d="M275.8421,-175C305.7977,-175 337.0982,-175 337.0982,-175 337.0982,-175 337.0982,-205.9775 337.0982,-205.9775"/>
<polygon fill="#000000" stroke="#000000" points="333.5983,-205.9774 337.0982,-215.9775 340.5983,-205.9775 333.5983,-205.9774"/>
</g>
<!-- PropertiesPipe  -->
<g id="node6" class="node">
<title>PropertiesPipe </title>
<polygon fill="#fb8072" stroke="#000000" points="272.6467,-252 171.3533,-252 171.3533,-216 272.6467,-216 272.6467,-252"/>
<text text-anchor="middle" x="222" y="-229.8" font-family="Times,serif" font-size="14.00" fill="#000000">PropertiesPipe </text>
</g>
<!-- PropertyModule&#45;&gt;PropertiesPipe  -->
<g id="edge5" class="edge">
<title>PropertyModule&#45;&gt;PropertiesPipe </title>
<path fill="none" stroke="#000000" stroke-dasharray="5,2" d="M222,-187.1061C222,-187.1061 222,-205.991 222,-205.991"/>
<polygon fill="#000000" stroke="#000000" points="218.5001,-205.9909 222,-215.991 225.5001,-205.991 218.5001,-205.9909"/>
</g>
<!-- PropertyPipe  -->
<g id="node7" class="node">
<title>PropertyPipe </title>
<polygon fill="#fb8072" stroke="#000000" points="153.0977,-252 60.9023,-252 60.9023,-216 153.0977,-216 153.0977,-252"/>
<text text-anchor="middle" x="107" y="-229.8" font-family="Times,serif" font-size="14.00" fill="#000000">PropertyPipe </text>
</g>
<!-- PropertyModule&#45;&gt;PropertyPipe  -->
<g id="edge6" class="edge">
<title>PropertyModule&#45;&gt;PropertyPipe </title>
<path fill="none" stroke="#000000" stroke-dasharray="5,2" d="M167.9432,-175C133.5339,-175 95.4005,-175 95.4005,-175 95.4005,-175 95.4005,-205.9775 95.4005,-205.9775"/>
<polygon fill="#000000" stroke="#000000" points="91.9006,-205.9774 95.4005,-215.9775 98.9006,-205.9775 91.9006,-205.9774"/>
</g>
</g>
</svg>
