<?xml version="1.0" encoding="UTF-8" standalone="no"?>
<!DOCTYPE svg PUBLIC "-//W3C//DTD SVG 1.1//EN"
 "http://www.w3.org/Graphics/SVG/1.1/DTD/svg11.dtd">
<!-- Generated by graphviz version 2.40.1 (20161225.0304)
 -->
<!-- Title: dependencies Pages: 1 -->
<svg width="504pt" height="284pt"
 viewBox="0.00 0.00 504.00 284.00" xmlns="http://www.w3.org/2000/svg" xmlns:xlink="http://www.w3.org/1999/xlink">
<g id="graph0" class="graph" transform="scale(1 1) rotate(0) translate(4 280)">
<title>dependencies</title>
<polygon fill="#ffffff" stroke="transparent" points="-4,4 -4,-280 500,-280 500,4 -4,4"/>
<text text-anchor="start" x="227.0091" y="-42.4" font-family="sans-serif" font-weight="bold" font-size="14.00" fill="#000000">Legend</text>
<polygon fill="#ffffb3" stroke="transparent" points="14,-10 14,-30 34,-30 34,-10 14,-10"/>
<text text-anchor="start" x="37.629" y="-15.4" font-family="sans-serif" font-size="14.00" fill="#000000"> &#160;Declarations</text>
<polygon fill="#8dd3c7" stroke="transparent" points="127,-10 127,-30 147,-30 147,-10 127,-10"/>
<text text-anchor="start" x="150.7251" y="-15.4" font-family="sans-serif" font-size="14.00" fill="#000000"> &#160;Module</text>
<polygon fill="#80b1d3" stroke="transparent" points="213,-10 213,-30 233,-30 233,-10 213,-10"/>
<text text-anchor="start" x="236.7812" y="-15.4" font-family="sans-serif" font-size="14.00" fill="#000000"> &#160;Bootstrap</text>
<polygon fill="#fdb462" stroke="transparent" points="310,-10 310,-30 330,-30 330,-10 310,-10"/>
<text text-anchor="start" x="333.6732" y="-15.4" font-family="sans-serif" font-size="14.00" fill="#000000"> &#160;Providers</text>
<polygon fill="#fb8072" stroke="transparent" points="406,-10 406,-30 426,-30 426,-10 406,-10"/>
<text text-anchor="start" x="429.7258" y="-15.4" font-family="sans-serif" font-size="14.00" fill="#000000"> &#160;Exports</text>
<g id="clust1" class="cluster">
<title>cluster_IdmEventModule</title>
<polygon fill="none" stroke="#000000" stroke-dasharray="1,5" points="13,-70 13,-268 483,-268 483,-70 13,-70"/>
</g>
<g id="clust2" class="cluster">
<title>cluster_IdmEventModule_declarations</title>
<polygon fill="none" stroke="#000000" points="27,-78 27,-130 470,-130 470,-78 27,-78"/>
</g>
<g id="clust7" class="cluster">
<title>cluster_IdmEventModule_exports</title>
<polygon fill="none" stroke="#000000" points="21,-208 21,-260 475,-260 475,-208 21,-208"/>
</g>
<!-- AdministrativeStatePipe -->
<g id="node1" class="node">
<title>AdministrativeStatePipe</title>
<polygon fill="#ffffb3" stroke="#000000" points="462.3655,-122 309.6345,-122 309.6345,-86 462.3655,-86 462.3655,-122"/>
<text text-anchor="middle" x="386" y="-99.8" font-family="Times,serif" font-size="14.00" fill="#000000">AdministrativeStatePipe</text>
</g>
<!-- IdmEventModule -->
<g id="node4" class="node">
<title>IdmEventModule</title>
<polygon fill="#8dd3c7" stroke="#000000" points="281.2591,-187 278.2591,-191 257.2591,-191 254.2591,-187 166.7409,-187 166.7409,-151 281.2591,-151 281.2591,-187"/>
<text text-anchor="middle" x="224" y="-164.8" font-family="Times,serif" font-size="14.00" fill="#000000">IdmEventModule</text>
</g>
<!-- AdministrativeStatePipe&#45;&gt;IdmEventModule -->
<g id="edge1" class="edge">
<title>AdministrativeStatePipe&#45;&gt;IdmEventModule</title>
<path fill="none" stroke="#000000" d="M411.8942,-122.0225C411.8942,-139.3734 411.8942,-163 411.8942,-163 411.8942,-163 291.3954,-163 291.3954,-163"/>
<polygon fill="#000000" stroke="#000000" points="291.3955,-159.5001 281.3954,-163 291.3954,-166.5001 291.3955,-159.5001"/>
</g>
<!-- OperationalStatePipe -->
<g id="node2" class="node">
<title>OperationalStatePipe</title>
<polygon fill="#ffffb3" stroke="#000000" points="291.4636,-122 156.5364,-122 156.5364,-86 291.4636,-86 291.4636,-122"/>
<text text-anchor="middle" x="224" y="-99.8" font-family="Times,serif" font-size="14.00" fill="#000000">OperationalStatePipe</text>
</g>
<!-- OperationalStatePipe&#45;&gt;IdmEventModule -->
<g id="edge2" class="edge">
<title>OperationalStatePipe&#45;&gt;IdmEventModule</title>
<path fill="none" stroke="#000000" d="M224,-122.1061C224,-122.1061 224,-140.991 224,-140.991"/>
<polygon fill="#000000" stroke="#000000" points="220.5001,-140.9909 224,-150.991 227.5001,-140.991 220.5001,-140.9909"/>
</g>
<!-- UsageStatePipe -->
<g id="node3" class="node">
<title>UsageStatePipe</title>
<polygon fill="#ffffb3" stroke="#000000" points="138.8613,-122 35.1387,-122 35.1387,-86 138.8613,-86 138.8613,-122"/>
<text text-anchor="middle" x="87" y="-99.8" font-family="Times,serif" font-size="14.00" fill="#000000">UsageStatePipe</text>
</g>
<!-- UsageStatePipe&#45;&gt;IdmEventModule -->
<g id="edge3" class="edge">
<title>UsageStatePipe&#45;&gt;IdmEventModule</title>
<path fill="none" stroke="#000000" d="M102.8102,-122.0225C102.8102,-139.3734 102.8102,-163 102.8102,-163 102.8102,-163 156.5992,-163 156.5992,-163"/>
<polygon fill="#000000" stroke="#000000" points="156.5993,-166.5001 166.5992,-163 156.5992,-159.5001 156.5993,-166.5001"/>
</g>
<!-- AdministrativeStatePipe  -->
<g id="node5" class="node">
<title>AdministrativeStatePipe </title>
<polygon fill="#fb8072" stroke="#000000" points="467.3658,-252 310.6342,-252 310.6342,-216 467.3658,-216 467.3658,-252"/>
<text text-anchor="middle" x="389" y="-229.8" font-family="Times,serif" font-size="14.00" fill="#000000">AdministrativeStatePipe </text>
</g>
<!-- IdmEventModule&#45;&gt;AdministrativeStatePipe  -->
<g id="edge4" class="edge">
<title>IdmEventModule&#45;&gt;AdministrativeStatePipe </title>
<path fill="none" stroke="#000000" stroke-dasharray="5,2" d="M281.4553,-175C319.0944,-175 361.3558,-175 361.3558,-175 361.3558,-175 361.3558,-205.9775 361.3558,-205.9775"/>
<polygon fill="#000000" stroke="#000000" points="357.8559,-205.9774 361.3558,-215.9775 364.8559,-205.9775 357.8559,-205.9774"/>
</g>
<!-- OperationalStatePipe  -->
<g id="node6" class="node">
<title>OperationalStatePipe </title>
<polygon fill="#fb8072" stroke="#000000" points="293.4644,-252 154.5356,-252 154.5356,-216 293.4644,-216 293.4644,-252"/>
<text text-anchor="middle" x="224" y="-229.8" font-family="Times,serif" font-size="14.00" fill="#000000">OperationalStatePipe </text>
</g>
<!-- IdmEventModule&#45;&gt;OperationalStatePipe  -->
<g id="edge5" class="edge">
<title>IdmEventModule&#45;&gt;OperationalStatePipe </title>
<path fill="none" stroke="#000000" stroke-dasharray="5,2" d="M224,-187.1061C224,-187.1061 224,-205.991 224,-205.991"/>
<polygon fill="#000000" stroke="#000000" points="220.5001,-205.9909 224,-215.991 227.5001,-205.991 220.5001,-205.9909"/>
</g>
<!-- UsageStatePipe  -->
<g id="node7" class="node">
<title>UsageStatePipe </title>
<polygon fill="#fb8072" stroke="#000000" points="136.8618,-252 29.1382,-252 29.1382,-216 136.8618,-216 136.8618,-252"/>
<text text-anchor="middle" x="83" y="-229.8" font-family="Times,serif" font-size="14.00" fill="#000000">UsageStatePipe </text>
</g>
<!-- IdmEventModule&#45;&gt;UsageStatePipe  -->
<g id="edge6" class="edge">
<title>IdmEventModule&#45;&gt;UsageStatePipe </title>
<path fill="none" stroke="#000000" stroke-dasharray="5,2" d="M166.7019,-175C122.531,-175 68.9398,-175 68.9398,-175 68.9398,-175 68.9398,-205.9775 68.9398,-205.9775"/>
<polygon fill="#000000" stroke="#000000" points="65.4399,-205.9774 68.9398,-215.9775 72.4399,-205.9775 65.4399,-205.9774"/>
</g>
</g>
</svg>
