<?xml version="1.0" encoding="UTF-8" standalone="no"?>
<!DOCTYPE svg PUBLIC "-//W3C//DTD SVG 1.1//EN"
 "http://www.w3.org/Graphics/SVG/1.1/DTD/svg11.dtd">
<!-- Generated by graphviz version 2.40.1 (20161225.0304)
 -->
<!-- Title: dependencies Pages: 1 -->
<svg width="760pt" height="349pt"
 viewBox="0.00 0.00 760.00 349.00" xmlns="http://www.w3.org/2000/svg" xmlns:xlink="http://www.w3.org/1999/xlink">
<g id="graph0" class="graph" transform="scale(1 1) rotate(0) translate(4 345)">
<title>dependencies</title>
<polygon fill="#ffffff" stroke="transparent" points="-4,4 -4,-345 756,-345 756,4 -4,4"/>
<text text-anchor="start" x="355.0091" y="-42.4" font-family="sans-serif" font-weight="bold" font-size="14.00" fill="#000000">Legend</text>
<polygon fill="#ffffb3" stroke="transparent" points="142,-10 142,-30 162,-30 162,-10 142,-10"/>
<text text-anchor="start" x="165.629" y="-15.4" font-family="sans-serif" font-size="14.00" fill="#000000"> &#160;Declarations</text>
<polygon fill="#8dd3c7" stroke="transparent" points="255,-10 255,-30 275,-30 275,-10 255,-10"/>
<text text-anchor="start" x="278.7251" y="-15.4" font-family="sans-serif" font-size="14.00" fill="#000000"> &#160;Module</text>
<polygon fill="#80b1d3" stroke="transparent" points="341,-10 341,-30 361,-30 361,-10 341,-10"/>
<text text-anchor="start" x="364.7812" y="-15.4" font-family="sans-serif" font-size="14.00" fill="#000000"> &#160;Bootstrap</text>
<polygon fill="#fdb462" stroke="transparent" points="438,-10 438,-30 458,-30 458,-10 438,-10"/>
<text text-anchor="start" x="461.6732" y="-15.4" font-family="sans-serif" font-size="14.00" fill="#000000"> &#160;Providers</text>
<polygon fill="#fb8072" stroke="transparent" points="534,-10 534,-30 554,-30 554,-10 534,-10"/>
<text text-anchor="start" x="557.7258" y="-15.4" font-family="sans-serif" font-size="14.00" fill="#000000"> &#160;Exports</text>
<g id="clust1" class="cluster">
<title>cluster_PortModule</title>
<polygon fill="none" stroke="#000000" stroke-dasharray="1,5" points="8,-70 8,-333 744,-333 744,-70 8,-70"/>
</g>
<g id="clust2" class="cluster">
<title>cluster_PortModule_declarations</title>
<polygon fill="none" stroke="#000000" points="540,-143 540,-195 736,-195 736,-143 540,-143"/>
</g>
<g id="clust3" class="cluster">
<title>cluster_PortModule_PortDirective_providers</title>
<polygon fill="none" stroke="#000000" points="647,-78 647,-130 717,-130 717,-78 647,-78"/>
</g>
<g id="clust5" class="cluster">
<title>cluster_PortModule_imports</title>
<polygon fill="none" stroke="#000000" points="16,-143 16,-195 532,-195 532,-143 16,-143"/>
</g>
<g id="clust6" class="cluster">
<title>cluster_PortModule_exports</title>
<polygon fill="none" stroke="#000000" points="301,-273 301,-325 503,-325 503,-273 301,-273"/>
</g>
<!-- PortDirective -->
<g id="node1" class="node">
<title>PortDirective</title>
<polygon fill="#ffffb3" stroke="#000000" points="727.9176,-187 636.0824,-187 636.0824,-151 727.9176,-151 727.9176,-187"/>
<text text-anchor="middle" x="682" y="-164.8" font-family="Times,serif" font-size="14.00" fill="#000000">PortDirective</text>
</g>
<!-- PortModule -->
<g id="node3" class="node">
<title>PortModule</title>
<polygon fill="#8dd3c7" stroke="#000000" points="438.3837,-252 435.3837,-256 414.3837,-256 411.3837,-252 355.6163,-252 355.6163,-216 438.3837,-216 438.3837,-252"/>
<text text-anchor="middle" x="397" y="-229.8" font-family="Times,serif" font-size="14.00" fill="#000000">PortModule</text>
</g>
<!-- PortDirective&#45;&gt;PortModule -->
<g id="edge1" class="edge">
<title>PortDirective&#45;&gt;PortModule</title>
<path fill="none" stroke="#000000" d="M682,-187.2843C682,-208.3211 682,-240 682,-240 682,-240 448.4414,-240 448.4414,-240"/>
<polygon fill="#000000" stroke="#000000" points="448.4415,-236.5001 438.4414,-240 448.4414,-243.5001 448.4415,-236.5001"/>
</g>
<!-- PortsPipe -->
<g id="node2" class="node">
<title>PortsPipe</title>
<polygon fill="#ffffb3" stroke="#000000" points="617.667,-187 548.333,-187 548.333,-151 617.667,-151 617.667,-187"/>
<text text-anchor="middle" x="583" y="-164.8" font-family="Times,serif" font-size="14.00" fill="#000000">PortsPipe</text>
</g>
<!-- PortsPipe&#45;&gt;PortModule -->
<g id="edge3" class="edge">
<title>PortsPipe&#45;&gt;PortModule</title>
<path fill="none" stroke="#000000" d="M583,-187.0225C583,-204.3734 583,-228 583,-228 583,-228 448.742,-228 448.742,-228"/>
<polygon fill="#000000" stroke="#000000" points="448.7421,-224.5001 438.742,-228 448.742,-231.5001 448.7421,-224.5001"/>
</g>
<!-- PortDirective  -->
<g id="node9" class="node">
<title>PortDirective </title>
<polygon fill="#fb8072" stroke="#000000" points="495.4166,-317 400.5834,-317 400.5834,-281 495.4166,-281 495.4166,-317"/>
<text text-anchor="middle" x="448" y="-294.8" font-family="Times,serif" font-size="14.00" fill="#000000">PortDirective </text>
</g>
<!-- PortModule&#45;&gt;PortDirective  -->
<g id="edge8" class="edge">
<title>PortModule&#45;&gt;PortDirective </title>
<path fill="none" stroke="#000000" stroke-dasharray="5,2" d="M419.4918,-252.1061C419.4918,-252.1061 419.4918,-270.991 419.4918,-270.991"/>
<polygon fill="#000000" stroke="#000000" points="415.9918,-270.9909 419.4918,-280.991 422.9918,-270.991 415.9918,-270.9909"/>
</g>
<!-- PortsPipe  -->
<g id="node10" class="node">
<title>PortsPipe </title>
<polygon fill="#fb8072" stroke="#000000" points="382.6664,-317 309.3336,-317 309.3336,-281 382.6664,-281 382.6664,-317"/>
<text text-anchor="middle" x="346" y="-294.8" font-family="Times,serif" font-size="14.00" fill="#000000">PortsPipe </text>
</g>
<!-- PortModule&#45;&gt;PortsPipe  -->
<g id="edge9" class="edge">
<title>PortModule&#45;&gt;PortsPipe </title>
<path fill="none" stroke="#000000" stroke-dasharray="5,2" d="M369.0707,-252.1061C369.0707,-252.1061 369.0707,-270.991 369.0707,-270.991"/>
<polygon fill="#000000" stroke="#000000" points="365.5707,-270.9909 369.0707,-280.991 372.5707,-270.991 365.5707,-270.9909"/>
</g>
<!-- () -->
<g id="node4" class="node">
<title>()</title>
<ellipse fill="#fdb462" stroke="#000000" cx="682" cy="-104" rx="27" ry="18"/>
<text text-anchor="middle" x="682" y="-99.8" font-family="Times,serif" font-size="14.00" fill="#000000">()</text>
</g>
<!-- ()&#45;&gt;PortDirective -->
<g id="edge2" class="edge">
<title>()&#45;&gt;PortDirective</title>
<path fill="none" stroke="#000000" d="M682,-122.1061C682,-122.1061 682,-140.991 682,-140.991"/>
<polygon fill="#000000" stroke="#000000" points="678.5001,-140.9909 682,-150.991 685.5001,-140.991 678.5001,-140.9909"/>
</g>
<!-- RestPythonModule -->
<g id="node5" class="node">
<title>RestPythonModule</title>
<polygon fill="#8dd3c7" stroke="#000000" points="524.1094,-187 521.1094,-191 500.1094,-191 497.1094,-187 399.8906,-187 399.8906,-151 524.1094,-151 524.1094,-187"/>
<text text-anchor="middle" x="462" y="-164.8" font-family="Times,serif" font-size="14.00" fill="#000000">RestPythonModule</text>
</g>
<!-- RestPythonModule&#45;&gt;PortModule -->
<g id="edge4" class="edge">
<title>RestPythonModule&#45;&gt;PortModule</title>
<path fill="none" stroke="#000000" d="M419.1935,-187.1061C419.1935,-187.1061 419.1935,-205.991 419.1935,-205.991"/>
<polygon fill="#000000" stroke="#000000" points="415.6936,-205.9909 419.1935,-215.991 422.6936,-205.991 415.6936,-205.9909"/>
</g>
<!-- DeviceModule -->
<g id="node6" class="node">
<title>DeviceModule</title>
<polygon fill="#8dd3c7" stroke="#000000" points="381.691,-187 378.691,-191 357.691,-191 354.691,-187 282.309,-187 282.309,-151 381.691,-151 381.691,-187"/>
<text text-anchor="middle" x="332" y="-164.8" font-family="Times,serif" font-size="14.00" fill="#000000">DeviceModule</text>
</g>
<!-- DeviceModule&#45;&gt;PortModule -->
<g id="edge5" class="edge">
<title>DeviceModule&#45;&gt;PortModule</title>
<path fill="none" stroke="#000000" d="M368.5768,-187.1061C368.5768,-187.1061 368.5768,-205.991 368.5768,-205.991"/>
<polygon fill="#000000" stroke="#000000" points="365.0769,-205.9909 368.5768,-215.991 372.0769,-205.991 365.0769,-205.9909"/>
</g>
<!-- WaveformModule -->
<g id="node7" class="node">
<title>WaveformModule</title>
<polygon fill="#8dd3c7" stroke="#000000" points="264.9061,-187 261.9061,-191 240.9061,-191 237.9061,-187 145.0939,-187 145.0939,-151 264.9061,-151 264.9061,-187"/>
<text text-anchor="middle" x="205" y="-164.8" font-family="Times,serif" font-size="14.00" fill="#000000">WaveformModule</text>
</g>
<!-- WaveformModule&#45;&gt;PortModule -->
<g id="edge6" class="edge">
<title>WaveformModule&#45;&gt;PortModule</title>
<path fill="none" stroke="#000000" d="M205,-187.0225C205,-204.3734 205,-228 205,-228 205,-228 345.3389,-228 345.3389,-228"/>
<polygon fill="#000000" stroke="#000000" points="345.3389,-231.5001 355.3389,-228 345.3388,-224.5001 345.3389,-231.5001"/>
</g>
<!-- SocketsModule -->
<g id="node8" class="node">
<title>SocketsModule</title>
<polygon fill="#8dd3c7" stroke="#000000" points="127.5968,-187 124.5968,-191 103.5968,-191 100.5968,-187 24.4032,-187 24.4032,-151 127.5968,-151 127.5968,-187"/>
<text text-anchor="middle" x="76" y="-164.8" font-family="Times,serif" font-size="14.00" fill="#000000">SocketsModule</text>
</g>
<!-- SocketsModule&#45;&gt;PortModule -->
<g id="edge7" class="edge">
<title>SocketsModule&#45;&gt;PortModule</title>
<path fill="none" stroke="#000000" d="M76,-187.2843C76,-208.3211 76,-240 76,-240 76,-240 345.3639,-240 345.3639,-240"/>
<polygon fill="#000000" stroke="#000000" points="345.364,-243.5001 355.3639,-240 345.3639,-236.5001 345.364,-243.5001"/>
</g>
</g>
</svg>
