<?xml version="1.0" encoding="UTF-8" standalone="no"?>
<!DOCTYPE svg PUBLIC "-//W3C//DTD SVG 1.1//EN"
 "http://www.w3.org/Graphics/SVG/1.1/DTD/svg11.dtd">
<!-- Generated by graphviz version 2.40.1 (20161225.0304)
 -->
<!-- Title: dependencies Pages: 1 -->
<svg width="504pt" height="349pt"
 viewBox="0.00 0.00 504.00 349.00" xmlns="http://www.w3.org/2000/svg" xmlns:xlink="http://www.w3.org/1999/xlink">
<g id="graph0" class="graph" transform="scale(1 1) rotate(0) translate(4 345)">
<title>dependencies</title>
<polygon fill="#ffffff" stroke="transparent" points="-4,4 -4,-345 500,-345 500,4 -4,4"/>
<text text-anchor="start" x="227.0091" y="-42.4" font-family="sans-serif" font-weight="bold" font-size="14.00" fill="#000000">Legend</text>
<polygon fill="#ffffb3" stroke="transparent" points="14,-10 14,-30 34,-30 34,-10 14,-10"/>
<text text-anchor="start" x="37.629" y="-15.4" font-family="sans-serif" font-size="14.00" fill="#000000"> &#160;Declarations</text>
<polygon fill="#8dd3c7" stroke="transparent" points="127,-10 127,-30 147,-30 147,-10 127,-10"/>
<text text-anchor="start" x="150.7251" y="-15.4" font-family="sans-serif" font-size="14.00" fill="#000000"> &#160;Module</text>
<polygon fill="#80b1d3" stroke="transparent" points="213,-10 213,-30 233,-30 233,-10 213,-10"/>
<text text-anchor="start" x="236.7812" y="-15.4" font-family="sans-serif" font-size="14.00" fill="#000000"> &#160;Bootstrap</text>
<polygon fill="#fdb462" stroke="transparent" points="310,-10 310,-30 330,-30 330,-10 310,-10"/>
<text text-anchor="start" x="333.6732" y="-15.4" font-family="sans-serif" font-size="14.00" fill="#000000"> &#160;Providers</text>
<polygon fill="#fb8072" stroke="transparent" points="406,-10 406,-30 426,-30 426,-10 406,-10"/>
<text text-anchor="start" x="429.7258" y="-15.4" font-family="sans-serif" font-size="14.00" fill="#000000"> &#160;Exports</text>
<g id="clust1" class="cluster">
<title>cluster_DeviceModule</title>
<polygon fill="none" stroke="#000000" stroke-dasharray="1,5" points="20.5,-70 20.5,-333 475.5,-333 475.5,-70 20.5,-70"/>
</g>
<g id="clust2" class="cluster">
<title>cluster_DeviceModule_declarations</title>
<polygon fill="none" stroke="#000000" points="343.5,-143 343.5,-195 467.5,-195 467.5,-143 343.5,-143"/>
</g>
<g id="clust3" class="cluster">
<title>cluster_DeviceModule_DeviceDirective_providers</title>
<polygon fill="none" stroke="#000000" points="370.5,-78 370.5,-130 440.5,-130 440.5,-78 370.5,-78"/>
</g>
<g id="clust4" class="cluster">
<title>cluster_DeviceModule_imports</title>
<polygon fill="none" stroke="#000000" points="28.5,-143 28.5,-195 335.5,-195 335.5,-143 28.5,-143"/>
</g>
<g id="clust5" class="cluster">
<title>cluster_DeviceModule_exports</title>
<polygon fill="none" stroke="#000000" points="201.5,-273 201.5,-325 329.5,-325 329.5,-273 201.5,-273"/>
</g>
<!-- DeviceDirective -->
<g id="node1" class="node">
<title>DeviceDirective</title>
<polygon fill="#ffffb3" stroke="#000000" points="459.2242,-187 351.7758,-187 351.7758,-151 459.2242,-151 459.2242,-187"/>
<text text-anchor="middle" x="405.5" y="-164.8" font-family="Times,serif" font-size="14.00" fill="#000000">DeviceDirective</text>
</g>
<!-- DeviceModule -->
<g id="node2" class="node">
<title>DeviceModule</title>
<polygon fill="#8dd3c7" stroke="#000000" points="315.191,-252 312.191,-256 291.191,-256 288.191,-252 215.809,-252 215.809,-216 315.191,-216 315.191,-252"/>
<text text-anchor="middle" x="265.5" y="-229.8" font-family="Times,serif" font-size="14.00" fill="#000000">DeviceModule</text>
</g>
<!-- DeviceDirective&#45;&gt;DeviceModule -->
<g id="edge1" class="edge">
<title>DeviceDirective&#45;&gt;DeviceModule</title>
<path fill="none" stroke="#000000" d="M405.5,-187.1061C405.5,-206.3391 405.5,-234 405.5,-234 405.5,-234 325.253,-234 325.253,-234"/>
<polygon fill="#000000" stroke="#000000" points="325.253,-230.5001 315.253,-234 325.2529,-237.5001 325.253,-230.5001"/>
</g>
<!-- DeviceDirective  -->
<g id="node6" class="node">
<title>DeviceDirective </title>
<polygon fill="#fb8072" stroke="#000000" points="321.224,-317 209.776,-317 209.776,-281 321.224,-281 321.224,-317"/>
<text text-anchor="middle" x="265.5" y="-294.8" font-family="Times,serif" font-size="14.00" fill="#000000">DeviceDirective </text>
</g>
<!-- DeviceModule&#45;&gt;DeviceDirective  -->
<g id="edge5" class="edge">
<title>DeviceModule&#45;&gt;DeviceDirective </title>
<path fill="none" stroke="#000000" stroke-dasharray="5,2" d="M265.5,-252.1061C265.5,-252.1061 265.5,-270.991 265.5,-270.991"/>
<polygon fill="#000000" stroke="#000000" points="262.0001,-270.9909 265.5,-280.991 269.0001,-270.991 262.0001,-270.9909"/>
</g>
<!-- () -->
<g id="node3" class="node">
<title>()</title>
<ellipse fill="#fdb462" stroke="#000000" cx="405.5" cy="-104" rx="27" ry="18"/>
<text text-anchor="middle" x="405.5" y="-99.8" font-family="Times,serif" font-size="14.00" fill="#000000">()</text>
</g>
<!-- ()&#45;&gt;DeviceDirective -->
<g id="edge2" class="edge">
<title>()&#45;&gt;DeviceDirective</title>
<path fill="none" stroke="#000000" d="M405.5,-122.1061C405.5,-122.1061 405.5,-140.991 405.5,-140.991"/>
<polygon fill="#000000" stroke="#000000" points="402.0001,-140.9909 405.5,-150.991 409.0001,-140.991 402.0001,-140.9909"/>
</g>
<!-- RestPythonModule -->
<g id="node4" class="node">
<title>RestPythonModule</title>
<polygon fill="#8dd3c7" stroke="#000000" points="327.6094,-187 324.6094,-191 303.6094,-191 300.6094,-187 203.3906,-187 203.3906,-151 327.6094,-151 327.6094,-187"/>
<text text-anchor="middle" x="265.5" y="-164.8" font-family="Times,serif" font-size="14.00" fill="#000000">RestPythonModule</text>
</g>
<!-- RestPythonModule&#45;&gt;DeviceModule -->
<g id="edge3" class="edge">
<title>RestPythonModule&#45;&gt;DeviceModule</title>
<path fill="none" stroke="#000000" d="M265.5,-187.1061C265.5,-187.1061 265.5,-205.991 265.5,-205.991"/>
<polygon fill="#000000" stroke="#000000" points="262.0001,-205.9909 265.5,-215.991 269.0001,-205.991 262.0001,-205.9909"/>
</g>
<!-- DeviceManagerModule -->
<g id="node5" class="node">
<title>DeviceManagerModule</title>
<polygon fill="#8dd3c7" stroke="#000000" points="184.9398,-187 181.9398,-191 160.9398,-191 157.9398,-187 36.0602,-187 36.0602,-151 184.9398,-151 184.9398,-187"/>
<text text-anchor="middle" x="110.5" y="-164.8" font-family="Times,serif" font-size="14.00" fill="#000000">DeviceManagerModule</text>
</g>
<!-- DeviceManagerModule&#45;&gt;DeviceModule -->
<g id="edge4" class="edge">
<title>DeviceManagerModule&#45;&gt;DeviceModule</title>
<path fill="none" stroke="#000000" d="M110.5,-187.1061C110.5,-206.3391 110.5,-234 110.5,-234 110.5,-234 205.6038,-234 205.6038,-234"/>
<polygon fill="#000000" stroke="#000000" points="205.6039,-237.5001 215.6038,-234 205.6038,-230.5001 205.6039,-237.5001"/>
</g>
</g>
</svg>
