<?xml version="1.0" encoding="UTF-8" standalone="no"?>
<!DOCTYPE svg PUBLIC "-//W3C//DTD SVG 1.1//EN"
 "http://www.w3.org/Graphics/SVG/1.1/DTD/svg11.dtd">
<!-- Generated by graphviz version 2.40.1 (20161225.0304)
 -->
<!-- Title: dependencies Pages: 1 -->
<svg width="504pt" height="284pt"
 viewBox="0.00 0.00 504.00 284.00" xmlns="http://www.w3.org/2000/svg" xmlns:xlink="http://www.w3.org/1999/xlink">
<g id="graph0" class="graph" transform="scale(1 1) rotate(0) translate(4 280)">
<title>dependencies</title>
<polygon fill="#ffffff" stroke="transparent" points="-4,4 -4,-280 500,-280 500,4 -4,4"/>
<text text-anchor="start" x="227.0091" y="-42.4" font-family="sans-serif" font-weight="bold" font-size="14.00" fill="#000000">Legend</text>
<polygon fill="#ffffb3" stroke="transparent" points="14,-10 14,-30 34,-30 34,-10 14,-10"/>
<text text-anchor="start" x="37.629" y="-15.4" font-family="sans-serif" font-size="14.00" fill="#000000"> &#160;Declarations</text>
<polygon fill="#8dd3c7" stroke="transparent" points="127,-10 127,-30 147,-30 147,-10 127,-10"/>
<text text-anchor="start" x="150.7251" y="-15.4" font-family="sans-serif" font-size="14.00" fill="#000000"> &#160;Module</text>
<polygon fill="#80b1d3" stroke="transparent" points="213,-10 213,-30 233,-30 233,-10 213,-10"/>
<text text-anchor="start" x="236.7812" y="-15.4" font-family="sans-serif" font-size="14.00" fill="#000000"> &#160;Bootstrap</text>
<polygon fill="#fdb462" stroke="transparent" points="310,-10 310,-30 330,-30 330,-10 310,-10"/>
<text text-anchor="start" x="333.6732" y="-15.4" font-family="sans-serif" font-size="14.00" fill="#000000"> &#160;Providers</text>
<polygon fill="#fb8072" stroke="transparent" points="406,-10 406,-30 426,-30 426,-10 406,-10"/>
<text text-anchor="start" x="429.7258" y="-15.4" font-family="sans-serif" font-size="14.00" fill="#000000"> &#160;Exports</text>
<g id="clust1" class="cluster">
<title>cluster_SocketsModule</title>
<polygon fill="none" stroke="#000000" stroke-dasharray="1,5" points="92,-70 92,-268 404,-268 404,-70 92,-70"/>
</g>
<g id="clust3" class="cluster">
<title>cluster_SocketsModule_imports</title>
<polygon fill="none" stroke="#000000" points="100,-78 100,-130 396,-130 396,-78 100,-78"/>
</g>
<g id="clust4" class="cluster">
<title>cluster_SocketsModule_exports</title>
<polygon fill="none" stroke="#000000" points="169,-208 169,-260 327,-260 327,-208 169,-208"/>
</g>
<!-- RestPythonModule -->
<g id="node1" class="node">
<title>RestPythonModule</title>
<polygon fill="#8dd3c7" stroke="#000000" points="388.1094,-122 385.1094,-126 364.1094,-126 361.1094,-122 263.8906,-122 263.8906,-86 388.1094,-86 388.1094,-122"/>
<text text-anchor="middle" x="326" y="-99.8" font-family="Times,serif" font-size="14.00" fill="#000000">RestPythonModule</text>
</g>
<!-- SocketsModule -->
<g id="node3" class="node">
<title>SocketsModule</title>
<polygon fill="#8dd3c7" stroke="#000000" points="299.5968,-187 296.5968,-191 275.5968,-191 272.5968,-187 196.4032,-187 196.4032,-151 299.5968,-151 299.5968,-187"/>
<text text-anchor="middle" x="248" y="-164.8" font-family="Times,serif" font-size="14.00" fill="#000000">SocketsModule</text>
</g>
<!-- RestPythonModule&#45;&gt;SocketsModule -->
<g id="edge1" class="edge">
<title>RestPythonModule&#45;&gt;SocketsModule</title>
<path fill="none" stroke="#000000" d="M281.7469,-122.1061C281.7469,-122.1061 281.7469,-140.991 281.7469,-140.991"/>
<polygon fill="#000000" stroke="#000000" points="278.2469,-140.9909 281.7469,-150.991 285.2469,-140.991 278.2469,-140.9909"/>
</g>
<!-- EventChannelModule -->
<g id="node2" class="node">
<title>EventChannelModule</title>
<polygon fill="#8dd3c7" stroke="#000000" points="246.3641,-122 243.3641,-126 222.3641,-126 219.3641,-122 107.6359,-122 107.6359,-86 246.3641,-86 246.3641,-122"/>
<text text-anchor="middle" x="177" y="-99.8" font-family="Times,serif" font-size="14.00" fill="#000000">EventChannelModule</text>
</g>
<!-- EventChannelModule&#45;&gt;SocketsModule -->
<g id="edge2" class="edge">
<title>EventChannelModule&#45;&gt;SocketsModule</title>
<path fill="none" stroke="#000000" d="M221.4418,-122.1061C221.4418,-122.1061 221.4418,-140.991 221.4418,-140.991"/>
<polygon fill="#000000" stroke="#000000" points="217.9419,-140.9909 221.4418,-150.991 224.9419,-140.991 217.9419,-140.9909"/>
</g>
<!-- EventChannelModule  -->
<g id="node4" class="node">
<title>EventChannelModule </title>
<polygon fill="#fb8072" stroke="#000000" points="319.3645,-252 176.6355,-252 176.6355,-216 319.3645,-216 319.3645,-252"/>
<text text-anchor="middle" x="248" y="-229.8" font-family="Times,serif" font-size="14.00" fill="#000000">EventChannelModule </text>
</g>
<!-- SocketsModule&#45;&gt;EventChannelModule  -->
<g id="edge3" class="edge">
<title>SocketsModule&#45;&gt;EventChannelModule </title>
<path fill="none" stroke="#000000" stroke-dasharray="5,2" d="M248,-187.1061C248,-187.1061 248,-205.991 248,-205.991"/>
<polygon fill="#000000" stroke="#000000" points="244.5001,-205.9909 248,-215.991 251.5001,-205.991 244.5001,-205.9909"/>
</g>
</g>
</svg>
