<?xml version="1.0" encoding="UTF-8" standalone="no"?>
<!DOCTYPE svg PUBLIC "-//W3C//DTD SVG 1.1//EN"
 "http://www.w3.org/Graphics/SVG/1.1/DTD/svg11.dtd">
<!-- Generated by graphviz version 2.40.1 (20161225.0304)
 -->
<!-- Title: dependencies Pages: 1 -->
<svg width="504pt" height="349pt"
 viewBox="0.00 0.00 504.00 349.00" xmlns="http://www.w3.org/2000/svg" xmlns:xlink="http://www.w3.org/1999/xlink">
<g id="graph0" class="graph" transform="scale(1 1) rotate(0) translate(4 345)">
<title>dependencies</title>
<polygon fill="#ffffff" stroke="transparent" points="-4,4 -4,-345 500,-345 500,4 -4,4"/>
<text text-anchor="start" x="227.0091" y="-42.4" font-family="sans-serif" font-weight="bold" font-size="14.00" fill="#000000">Legend</text>
<polygon fill="#ffffb3" stroke="transparent" points="14,-10 14,-30 34,-30 34,-10 14,-10"/>
<text text-anchor="start" x="37.629" y="-15.4" font-family="sans-serif" font-size="14.00" fill="#000000"> &#160;Declarations</text>
<polygon fill="#8dd3c7" stroke="transparent" points="127,-10 127,-30 147,-30 147,-10 127,-10"/>
<text text-anchor="start" x="150.7251" y="-15.4" font-family="sans-serif" font-size="14.00" fill="#000000"> &#160;Module</text>
<polygon fill="#80b1d3" stroke="transparent" points="213,-10 213,-30 233,-30 233,-10 213,-10"/>
<text text-anchor="start" x="236.7812" y="-15.4" font-family="sans-serif" font-size="14.00" fill="#000000"> &#160;Bootstrap</text>
<polygon fill="#fdb462" stroke="transparent" points="310,-10 310,-30 330,-30 330,-10 310,-10"/>
<text text-anchor="start" x="333.6732" y="-15.4" font-family="sans-serif" font-size="14.00" fill="#000000"> &#160;Providers</text>
<polygon fill="#fb8072" stroke="transparent" points="406,-10 406,-30 426,-30 426,-10 406,-10"/>
<text text-anchor="start" x="429.7258" y="-15.4" font-family="sans-serif" font-size="14.00" fill="#000000"> &#160;Exports</text>
<g id="clust1" class="cluster">
<title>cluster_WaveformModule</title>
<polygon fill="none" stroke="#000000" stroke-dasharray="1,5" points="33,-70 33,-333 463,-333 463,-70 33,-70"/>
</g>
<g id="clust2" class="cluster">
<title>cluster_WaveformModule_declarations</title>
<polygon fill="none" stroke="#000000" points="311,-143 311,-195 455,-195 455,-143 311,-143"/>
</g>
<g id="clust3" class="cluster">
<title>cluster_WaveformModule_WaveformDirective_providers</title>
<polygon fill="none" stroke="#000000" points="197,-78 197,-130 455,-130 455,-78 197,-78"/>
</g>
<g id="clust4" class="cluster">
<title>cluster_WaveformModule_imports</title>
<polygon fill="none" stroke="#000000" points="41,-143 41,-195 303,-195 303,-143 41,-143"/>
</g>
<g id="clust5" class="cluster">
<title>cluster_WaveformModule_exports</title>
<polygon fill="none" stroke="#000000" points="159,-273 159,-325 307,-325 307,-273 159,-273"/>
</g>
<!-- WaveformDirective -->
<g id="node1" class="node">
<title>WaveformDirective</title>
<polygon fill="#ffffb3" stroke="#000000" points="446.9384,-187 319.0616,-187 319.0616,-151 446.9384,-151 446.9384,-187"/>
<text text-anchor="middle" x="383" y="-164.8" font-family="Times,serif" font-size="14.00" fill="#000000">WaveformDirective</text>
</g>
<!-- WaveformModule -->
<g id="node2" class="node">
<title>WaveformModule</title>
<polygon fill="#8dd3c7" stroke="#000000" points="292.9061,-252 289.9061,-256 268.9061,-256 265.9061,-252 173.0939,-252 173.0939,-216 292.9061,-216 292.9061,-252"/>
<text text-anchor="middle" x="233" y="-229.8" font-family="Times,serif" font-size="14.00" fill="#000000">WaveformModule</text>
</g>
<!-- WaveformDirective&#45;&gt;WaveformModule -->
<g id="edge1" class="edge">
<title>WaveformDirective&#45;&gt;WaveformModule</title>
<path fill="none" stroke="#000000" d="M383,-187.1061C383,-206.3391 383,-234 383,-234 383,-234 302.715,-234 302.715,-234"/>
<polygon fill="#000000" stroke="#000000" points="302.715,-230.5001 292.715,-234 302.7149,-237.5001 302.715,-230.5001"/>
</g>
<!-- WaveformDirective  -->
<g id="node6" class="node">
<title>WaveformDirective </title>
<polygon fill="#fb8072" stroke="#000000" points="298.9391,-317 167.0609,-317 167.0609,-281 298.9391,-281 298.9391,-317"/>
<text text-anchor="middle" x="233" y="-294.8" font-family="Times,serif" font-size="14.00" fill="#000000">WaveformDirective </text>
</g>
<!-- WaveformModule&#45;&gt;WaveformDirective  -->
<g id="edge5" class="edge">
<title>WaveformModule&#45;&gt;WaveformDirective </title>
<path fill="none" stroke="#000000" stroke-dasharray="5,2" d="M233,-252.1061C233,-252.1061 233,-270.991 233,-270.991"/>
<polygon fill="#000000" stroke="#000000" points="229.5001,-270.9909 233,-280.991 236.5001,-270.991 229.5001,-270.9909"/>
</g>
<!-- waveformServiceProvider.() -->
<g id="node3" class="node">
<title>waveformServiceProvider.()</title>
<ellipse fill="#fdb462" stroke="#000000" cx="326" cy="-104" rx="121.4662" ry="18"/>
<text text-anchor="middle" x="326" y="-99.8" font-family="Times,serif" font-size="14.00" fill="#000000">waveformServiceProvider.()</text>
</g>
<!-- waveformServiceProvider.()&#45;&gt;WaveformDirective -->
<g id="edge2" class="edge">
<title>waveformServiceProvider.()&#45;&gt;WaveformDirective</title>
<path fill="none" stroke="#000000" d="M383,-120.0674C383,-120.0674 383,-140.8237 383,-140.8237"/>
<polygon fill="#000000" stroke="#000000" points="379.5001,-140.8236 383,-150.8237 386.5001,-140.8237 379.5001,-140.8236"/>
</g>
<!-- RestPythonModule -->
<g id="node4" class="node">
<title>RestPythonModule</title>
<polygon fill="#8dd3c7" stroke="#000000" points="295.1094,-187 292.1094,-191 271.1094,-191 268.1094,-187 170.8906,-187 170.8906,-151 295.1094,-151 295.1094,-187"/>
<text text-anchor="middle" x="233" y="-164.8" font-family="Times,serif" font-size="14.00" fill="#000000">RestPythonModule</text>
</g>
<!-- RestPythonModule&#45;&gt;WaveformModule -->
<g id="edge3" class="edge">
<title>RestPythonModule&#45;&gt;WaveformModule</title>
<path fill="none" stroke="#000000" d="M233,-187.1061C233,-187.1061 233,-205.991 233,-205.991"/>
<polygon fill="#000000" stroke="#000000" points="229.5001,-205.9909 233,-215.991 236.5001,-205.991 229.5001,-205.9909"/>
</g>
<!-- DomainModule -->
<g id="node5" class="node">
<title>DomainModule</title>
<polygon fill="#8dd3c7" stroke="#000000" points="153.1528,-187 150.1528,-191 129.1528,-191 126.1528,-187 48.8472,-187 48.8472,-151 153.1528,-151 153.1528,-187"/>
<text text-anchor="middle" x="101" y="-164.8" font-family="Times,serif" font-size="14.00" fill="#000000">DomainModule</text>
</g>
<!-- DomainModule&#45;&gt;WaveformModule -->
<g id="edge4" class="edge">
<title>DomainModule&#45;&gt;WaveformModule</title>
<path fill="none" stroke="#000000" d="M101,-187.1061C101,-206.3391 101,-234 101,-234 101,-234 163.1794,-234 163.1794,-234"/>
<polygon fill="#000000" stroke="#000000" points="163.1795,-237.5001 173.1794,-234 163.1794,-230.5001 163.1795,-237.5001"/>
</g>
</g>
</svg>
