<?xml version="1.0" encoding="UTF-8" standalone="no"?>
<!DOCTYPE svg PUBLIC "-//W3C//DTD SVG 1.1//EN"
 "http://www.w3.org/Graphics/SVG/1.1/DTD/svg11.dtd">
<!-- Generated by graphviz version 2.40.1 (20161225.0304)
 -->
<!-- Title: dependencies Pages: 1 -->
<svg width="570pt" height="349pt"
 viewBox="0.00 0.00 570.00 349.00" xmlns="http://www.w3.org/2000/svg" xmlns:xlink="http://www.w3.org/1999/xlink">
<g id="graph0" class="graph" transform="scale(1 1) rotate(0) translate(4 345)">
<title>dependencies</title>
<polygon fill="#ffffff" stroke="transparent" points="-4,4 -4,-345 566,-345 566,4 -4,4"/>
<text text-anchor="start" x="260.0091" y="-42.4" font-family="sans-serif" font-weight="bold" font-size="14.00" fill="#000000">Legend</text>
<polygon fill="#ffffb3" stroke="transparent" points="47,-10 47,-30 67,-30 67,-10 47,-10"/>
<text text-anchor="start" x="70.629" y="-15.4" font-family="sans-serif" font-size="14.00" fill="#000000"> &#160;Declarations</text>
<polygon fill="#8dd3c7" stroke="transparent" points="160,-10 160,-30 180,-30 180,-10 160,-10"/>
<text text-anchor="start" x="183.7251" y="-15.4" font-family="sans-serif" font-size="14.00" fill="#000000"> &#160;Module</text>
<polygon fill="#80b1d3" stroke="transparent" points="246,-10 246,-30 266,-30 266,-10 246,-10"/>
<text text-anchor="start" x="269.7812" y="-15.4" font-family="sans-serif" font-size="14.00" fill="#000000"> &#160;Bootstrap</text>
<polygon fill="#fdb462" stroke="transparent" points="343,-10 343,-30 363,-30 363,-10 343,-10"/>
<text text-anchor="start" x="366.6732" y="-15.4" font-family="sans-serif" font-size="14.00" fill="#000000"> &#160;Providers</text>
<polygon fill="#fb8072" stroke="transparent" points="439,-10 439,-30 459,-30 459,-10 439,-10"/>
<text text-anchor="start" x="462.7258" y="-15.4" font-family="sans-serif" font-size="14.00" fill="#000000"> &#160;Exports</text>
<g id="clust1" class="cluster">
<title>cluster_DomainModule</title>
<polygon fill="none" stroke="#000000" stroke-dasharray="1,5" points="8,-70 8,-333 554,-333 554,-70 8,-70"/>
</g>
<g id="clust2" class="cluster">
<title>cluster_DomainModule_declarations</title>
<polygon fill="none" stroke="#000000" points="416,-143 416,-195 546,-195 546,-143 416,-143"/>
</g>
<g id="clust3" class="cluster">
<title>cluster_DomainModule_DomainDirective_providers</title>
<polygon fill="none" stroke="#000000" points="28,-78 28,-130 546,-130 546,-78 28,-78"/>
</g>
<g id="clust4" class="cluster">
<title>cluster_DomainModule_imports</title>
<polygon fill="none" stroke="#000000" points="16,-143 16,-195 408,-195 408,-143 16,-143"/>
</g>
<g id="clust5" class="cluster">
<title>cluster_DomainModule_exports</title>
<polygon fill="none" stroke="#000000" points="204,-273 204,-325 336,-325 336,-273 204,-273"/>
</g>
<!-- DomainDirective -->
<g id="node1" class="node">
<title>DomainDirective</title>
<polygon fill="#ffffb3" stroke="#000000" points="537.6854,-187 424.3146,-187 424.3146,-151 537.6854,-151 537.6854,-187"/>
<text text-anchor="middle" x="481" y="-164.8" font-family="Times,serif" font-size="14.00" fill="#000000">DomainDirective</text>
</g>
<!-- DomainModule -->
<g id="node2" class="node">
<title>DomainModule</title>
<polygon fill="#8dd3c7" stroke="#000000" points="322.1528,-252 319.1528,-256 298.1528,-256 295.1528,-252 217.8472,-252 217.8472,-216 322.1528,-216 322.1528,-252"/>
<text text-anchor="middle" x="270" y="-229.8" font-family="Times,serif" font-size="14.00" fill="#000000">DomainModule</text>
</g>
<!-- DomainDirective&#45;&gt;DomainModule -->
<g id="edge1" class="edge">
<title>DomainDirective&#45;&gt;DomainModule</title>
<path fill="none" stroke="#000000" d="M481,-187.1061C481,-206.3391 481,-234 481,-234 481,-234 332.1573,-234 332.1573,-234"/>
<polygon fill="#000000" stroke="#000000" points="332.1574,-230.5001 322.1573,-234 332.1573,-237.5001 332.1574,-230.5001"/>
</g>
<!-- DomainDirective  -->
<g id="node8" class="node">
<title>DomainDirective </title>
<polygon fill="#fb8072" stroke="#000000" points="328.1856,-317 211.8144,-317 211.8144,-281 328.1856,-281 328.1856,-317"/>
<text text-anchor="middle" x="270" y="-294.8" font-family="Times,serif" font-size="14.00" fill="#000000">DomainDirective </text>
</g>
<!-- DomainModule&#45;&gt;DomainDirective  -->
<g id="edge7" class="edge">
<title>DomainModule&#45;&gt;DomainDirective </title>
<path fill="none" stroke="#000000" stroke-dasharray="5,2" d="M270,-252.1061C270,-252.1061 270,-270.991 270,-270.991"/>
<polygon fill="#000000" stroke="#000000" points="266.5001,-270.9909 270,-280.991 273.5001,-270.991 266.5001,-270.9909"/>
</g>
<!-- odmListenerServiceProvider.() -->
<g id="node3" class="node">
<title>odmListenerServiceProvider.()</title>
<ellipse fill="#fdb462" stroke="#000000" cx="407" cy="-104" rx="130.7952" ry="18"/>
<text text-anchor="middle" x="407" y="-99.8" font-family="Times,serif" font-size="14.00" fill="#000000">odmListenerServiceProvider.()</text>
</g>
<!-- odmListenerServiceProvider.()&#45;&gt;DomainDirective -->
<g id="edge2" class="edge">
<title>odmListenerServiceProvider.()&#45;&gt;DomainDirective</title>
<path fill="none" stroke="#000000" d="M499.8642,-116.8419C499.8642,-116.8419 499.8642,-140.5231 499.8642,-140.5231"/>
<polygon fill="#000000" stroke="#000000" points="496.3643,-140.523 499.8642,-150.5231 503.3643,-140.5231 496.3643,-140.523"/>
</g>
<!-- domainServiceProvider.() -->
<g id="node4" class="node">
<title>domainServiceProvider.()</title>
<ellipse fill="#fdb462" stroke="#000000" cx="147" cy="-104" rx="111.1147" ry="18"/>
<text text-anchor="middle" x="147" y="-99.8" font-family="Times,serif" font-size="14.00" fill="#000000">domainServiceProvider.()</text>
</g>
<!-- domainServiceProvider.()&#45;&gt;DomainDirective -->
<g id="edge3" class="edge">
<title>domainServiceProvider.()&#45;&gt;DomainDirective</title>
<path fill="none" stroke="#000000" d="M201.9231,-119.7268C201.9231,-128.2263 201.9231,-137 201.9231,-137 201.9231,-137 462.1358,-137 462.1358,-137 462.1358,-137 462.1358,-140.7566 462.1358,-140.7566"/>
<polygon fill="#000000" stroke="#000000" points="458.6359,-140.7566 462.1358,-150.7566 465.6359,-140.7566 458.6359,-140.7566"/>
</g>
<!-- RestPythonModule -->
<g id="node5" class="node">
<title>RestPythonModule</title>
<polygon fill="#8dd3c7" stroke="#000000" points="400.1094,-187 397.1094,-191 376.1094,-191 373.1094,-187 275.8906,-187 275.8906,-151 400.1094,-151 400.1094,-187"/>
<text text-anchor="middle" x="338" y="-164.8" font-family="Times,serif" font-size="14.00" fill="#000000">RestPythonModule</text>
</g>
<!-- RestPythonModule&#45;&gt;DomainModule -->
<g id="edge4" class="edge">
<title>RestPythonModule&#45;&gt;DomainModule</title>
<path fill="none" stroke="#000000" d="M299.1357,-187.1061C299.1357,-187.1061 299.1357,-205.991 299.1357,-205.991"/>
<polygon fill="#000000" stroke="#000000" points="295.6358,-205.9909 299.1357,-215.991 302.6358,-205.991 295.6358,-205.9909"/>
</g>
<!-- RedhawkModule -->
<g id="node6" class="node">
<title>RedhawkModule</title>
<polygon fill="#8dd3c7" stroke="#000000" points="258.423,-187 255.423,-191 234.423,-191 231.423,-187 145.577,-187 145.577,-151 258.423,-151 258.423,-187"/>
<text text-anchor="middle" x="202" y="-164.8" font-family="Times,serif" font-size="14.00" fill="#000000">RedhawkModule</text>
</g>
<!-- RedhawkModule&#45;&gt;DomainModule -->
<g id="edge5" class="edge">
<title>RedhawkModule&#45;&gt;DomainModule</title>
<path fill="none" stroke="#000000" d="M237.9425,-187.1061C237.9425,-187.1061 237.9425,-205.991 237.9425,-205.991"/>
<polygon fill="#000000" stroke="#000000" points="234.4426,-205.9909 237.9425,-215.991 241.4426,-205.991 234.4426,-205.9909"/>
</g>
<!-- SocketsModule -->
<g id="node7" class="node">
<title>SocketsModule</title>
<polygon fill="#8dd3c7" stroke="#000000" points="127.5968,-187 124.5968,-191 103.5968,-191 100.5968,-187 24.4032,-187 24.4032,-151 127.5968,-151 127.5968,-187"/>
<text text-anchor="middle" x="76" y="-164.8" font-family="Times,serif" font-size="14.00" fill="#000000">SocketsModule</text>
</g>
<!-- SocketsModule&#45;&gt;DomainModule -->
<g id="edge6" class="edge">
<title>SocketsModule&#45;&gt;DomainModule</title>
<path fill="none" stroke="#000000" d="M76,-187.1061C76,-206.3391 76,-234 76,-234 76,-234 207.7564,-234 207.7564,-234"/>
<polygon fill="#000000" stroke="#000000" points="207.7564,-237.5001 217.7564,-234 207.7563,-230.5001 207.7564,-237.5001"/>
</g>
</g>
</svg>
