<?xml version="1.0" encoding="UTF-8" standalone="no"?>
<!DOCTYPE svg PUBLIC "-//W3C//DTD SVG 1.1//EN"
 "http://www.w3.org/Graphics/SVG/1.1/DTD/svg11.dtd">
<!-- Generated by graphviz version 2.40.1 (20161225.0304)
 -->
<!-- Title: dependencies Pages: 1 -->
<svg width="504pt" height="284pt"
 viewBox="0.00 0.00 504.00 284.00" xmlns="http://www.w3.org/2000/svg" xmlns:xlink="http://www.w3.org/1999/xlink">
<g id="graph0" class="graph" transform="scale(1 1) rotate(0) translate(4 280)">
<title>dependencies</title>
<polygon fill="#ffffff" stroke="transparent" points="-4,4 -4,-280 500,-280 500,4 -4,4"/>
<text text-anchor="start" x="227.0091" y="-42.4" font-family="sans-serif" font-weight="bold" font-size="14.00" fill="#000000">Legend</text>
<polygon fill="#ffffb3" stroke="transparent" points="14,-10 14,-30 34,-30 34,-10 14,-10"/>
<text text-anchor="start" x="37.629" y="-15.4" font-family="sans-serif" font-size="14.00" fill="#000000"> &#160;Declarations</text>
<polygon fill="#8dd3c7" stroke="transparent" points="127,-10 127,-30 147,-30 147,-10 127,-10"/>
<text text-anchor="start" x="150.7251" y="-15.4" font-family="sans-serif" font-size="14.00" fill="#000000"> &#160;Module</text>
<polygon fill="#80b1d3" stroke="transparent" points="213,-10 213,-30 233,-30 233,-10 213,-10"/>
<text text-anchor="start" x="236.7812" y="-15.4" font-family="sans-serif" font-size="14.00" fill="#000000"> &#160;Bootstrap</text>
<polygon fill="#fdb462" stroke="transparent" points="310,-10 310,-30 330,-30 330,-10 310,-10"/>
<text text-anchor="start" x="333.6732" y="-15.4" font-family="sans-serif" font-size="14.00" fill="#000000"> &#160;Providers</text>
<polygon fill="#fb8072" stroke="transparent" points="406,-10 406,-30 426,-30 426,-10 406,-10"/>
<text text-anchor="start" x="429.7258" y="-15.4" font-family="sans-serif" font-size="14.00" fill="#000000"> &#160;Exports</text>
<g id="clust1" class="cluster">
<title>cluster_OdmEventModule</title>
<polygon fill="none" stroke="#000000" stroke-dasharray="1,5" points="72,-70 72,-268 424,-268 424,-70 72,-70"/>
</g>
<g id="clust2" class="cluster">
<title>cluster_OdmEventModule_declarations</title>
<polygon fill="none" stroke="#000000" points="84,-78 84,-130 413,-130 413,-78 84,-78"/>
</g>
<g id="clust6" class="cluster">
<title>cluster_OdmEventModule_exports</title>
<polygon fill="none" stroke="#000000" points="80,-208 80,-260 416,-260 416,-208 80,-208"/>
</g>
<!-- ResourceStateChangePipe -->
<g id="node1" class="node">
<title>ResourceStateChangePipe</title>
<polygon fill="#ffffb3" stroke="#000000" points="404.7324,-122 241.2676,-122 241.2676,-86 404.7324,-86 404.7324,-122"/>
<text text-anchor="middle" x="323" y="-99.8" font-family="Times,serif" font-size="14.00" fill="#000000">ResourceStateChangePipe</text>
</g>
<!-- OdmEventModule -->
<g id="node3" class="node">
<title>OdmEventModule</title>
<polygon fill="#8dd3c7" stroke="#000000" points="218.205,-187 215.205,-191 194.205,-191 191.205,-187 97.795,-187 97.795,-151 218.205,-151 218.205,-187"/>
<text text-anchor="middle" x="158" y="-164.8" font-family="Times,serif" font-size="14.00" fill="#000000">OdmEventModule</text>
</g>
<!-- ResourceStateChangePipe&#45;&gt;OdmEventModule -->
<g id="edge1" class="edge">
<title>ResourceStateChangePipe&#45;&gt;OdmEventModule</title>
<path fill="none" stroke="#000000" d="M350.2887,-122.0225C350.2887,-139.3734 350.2887,-163 350.2887,-163 350.2887,-163 228.3138,-163 228.3138,-163"/>
<polygon fill="#000000" stroke="#000000" points="228.3138,-159.5001 218.3138,-163 228.3137,-166.5001 228.3138,-159.5001"/>
</g>
<!-- SourceCategoryPipe -->
<g id="node2" class="node">
<title>SourceCategoryPipe</title>
<polygon fill="#ffffb3" stroke="#000000" points="223.5772,-122 92.4228,-122 92.4228,-86 223.5772,-86 223.5772,-122"/>
<text text-anchor="middle" x="158" y="-99.8" font-family="Times,serif" font-size="14.00" fill="#000000">SourceCategoryPipe</text>
</g>
<!-- SourceCategoryPipe&#45;&gt;OdmEventModule -->
<g id="edge2" class="edge">
<title>SourceCategoryPipe&#45;&gt;OdmEventModule</title>
<path fill="none" stroke="#000000" d="M158,-122.1061C158,-122.1061 158,-140.991 158,-140.991"/>
<polygon fill="#000000" stroke="#000000" points="154.5001,-140.9909 158,-150.991 161.5001,-140.991 154.5001,-140.9909"/>
</g>
<!-- ResourceStateChangePipe  -->
<g id="node4" class="node">
<title>ResourceStateChangePipe </title>
<polygon fill="#fb8072" stroke="#000000" points="407.7324,-252 240.2676,-252 240.2676,-216 407.7324,-216 407.7324,-252"/>
<text text-anchor="middle" x="324" y="-229.8" font-family="Times,serif" font-size="14.00" fill="#000000">ResourceStateChangePipe </text>
</g>
<!-- OdmEventModule&#45;&gt;ResourceStateChangePipe  -->
<g id="edge3" class="edge">
<title>OdmEventModule&#45;&gt;ResourceStateChangePipe </title>
<path fill="none" stroke="#000000" stroke-dasharray="5,2" d="M218.4022,-175C255.4035,-175 295.7113,-175 295.7113,-175 295.7113,-175 295.7113,-205.9775 295.7113,-205.9775"/>
<polygon fill="#000000" stroke="#000000" points="292.2114,-205.9774 295.7113,-215.9775 299.2114,-205.9775 292.2114,-205.9774"/>
</g>
<!-- SourceCategoryPipe  -->
<g id="node5" class="node">
<title>SourceCategoryPipe </title>
<polygon fill="#fb8072" stroke="#000000" points="222.0779,-252 87.9221,-252 87.9221,-216 222.0779,-216 222.0779,-252"/>
<text text-anchor="middle" x="155" y="-229.8" font-family="Times,serif" font-size="14.00" fill="#000000">SourceCategoryPipe </text>
</g>
<!-- OdmEventModule&#45;&gt;SourceCategoryPipe  -->
<g id="edge4" class="edge">
<title>OdmEventModule&#45;&gt;SourceCategoryPipe </title>
<path fill="none" stroke="#000000" stroke-dasharray="5,2" d="M158,-187.1061C158,-187.1061 158,-205.991 158,-205.991"/>
<polygon fill="#000000" stroke="#000000" points="154.5001,-205.9909 158,-215.991 161.5001,-205.991 154.5001,-205.9909"/>
</g>
</g>
</svg>
